<svg xmlns="http://www.w3.org/2000/svg" xml:space="preserve" width="72px" height="72px" fill="#fff" stroke="#fff" stroke-width="5.12" aria-hidden="true" style="width:28px;height:28px" viewBox="-40.96 -40.96 593.92 593.92">
  <rect width="593.92" height="593.92" x="-40.96" y="-40.96" fill="#26A17B" stroke="none" stroke-width="0" rx="296.96"/>
  <g stroke="#CCC" stroke-linecap="round" stroke-linejoin="round" stroke-width="9.216">
    <path d="M256 0C114.62 0 0 114.611 0 256c0 141.38 114.62 256 256 256s256-114.62 256-256C512 114.611 397.38 0 256 0zm0 486.4C128.956 486.4 25.6 383.044 25.6 256S128.956 25.6 256 25.6 486.4 128.956 486.4 256 383.044 486.4 256 486.4z"/>
    <path d="M330.385 268.638c-12.783-10.65-34.261-20.122-64.384-28.399V127.437c14.123.802 25.6 4.403 34.398 10.803 11.46 8.55 17.604 21.197 18.398 37.999 0 4.548 1.323 8.149 4.002 10.803 2.398 2.398 5.197 3.601 8.397 3.601 3.464 0 6.263-1.203 8.397-3.601 2.662-2.654 4.002-6.246 4.002-10.803 0-20.804-7.074-37.598-21.197-50.398-14.14-12.527-32.939-19.328-56.397-20.403V83.84c0-6.648-3.473-10.001-10.402-10.001-6.673 0-10.001 3.354-10.001 10.001v21.598c-23.475.802-42.675 7.603-57.6 20.403-16.273 14.148-24.397 32.947-24.397 56.397 0 20.002 7.202 36.147 21.598 48.401 13.065 11.204 33.203 20.002 60.399 26.402v120.798c-19.2-1.852-34.133-7.202-44.8-16-13.875-11.725-20.676-29.047-20.403-52.002 0-4.523-1.203-8.004-3.601-10.402-2.133-2.398-4.804-3.601-8.004-3.601s-5.871 1.203-8.004 3.601c-2.398 2.398-3.601 5.871-3.601 10.402 0 32.273 9.464 55.876 28.399 70.801 13.867 10.402 33.86 16.802 59.998 19.2v29.201c0 6.929 3.328 10.402 10.001 10.402 6.929 0 10.402-3.473 10.402-10.402v-28.8c24.26-1.852 44.527-9.728 60.8-23.603 17.323-14.925 26.001-33.997 26.001-57.199-.001-21.598-7.476-38.528-22.401-50.799zm-84.787-33.997c-20.54-5.325-35.2-12.527-43.998-21.598-8.533-8.798-12.8-20.002-12.8-33.604 0-16.529 6.4-29.602 19.2-39.202 10.402-7.723 22.929-12.126 37.598-13.201v107.605zm60.399 128.393c-11.204 8.277-24.533 13.201-40.004 14.797v-114.39c23.202 5.871 38.929 12.552 47.198 20.002 9.327 8.277 14.003 21.077 14.003 38.4.008 17.348-7.066 31.07-21.197 41.191z"/>
  </g>
  <path d="M256 0C114.62 0 0 114.611 0 256c0 141.38 114.62 256 256 256s256-114.62 256-256C512 114.611 397.38 0 256 0zm0 486.4C128.956 486.4 25.6 383.044 25.6 256S128.956 25.6 256 25.6 486.4 128.956 486.4 256 383.044 486.4 256 486.4z"/>
  <path d="M330.385 268.638c-12.783-10.65-34.261-20.122-64.384-28.399V127.437c14.123.802 25.6 4.403 34.398 10.803 11.46 8.55 17.604 21.197 18.398 37.999 0 4.548 1.323 8.149 4.002 10.803 2.398 2.398 5.197 3.601 8.397 3.601 3.464 0 6.263-1.203 8.397-3.601 2.662-2.654 4.002-6.246 4.002-10.803 0-20.804-7.074-37.598-21.197-50.398-14.14-12.527-32.939-19.328-56.397-20.403V83.84c0-6.648-3.473-10.001-10.402-10.001-6.673 0-10.001 3.354-10.001 10.001v21.598c-23.475.802-42.675 7.603-57.6 20.403-16.273 14.148-24.397 32.947-24.397 56.397 0 20.002 7.202 36.147 21.598 48.401 13.065 11.204 33.203 20.002 60.399 26.402v120.798c-19.2-1.852-34.133-7.202-44.8-16-13.875-11.725-20.676-29.047-20.403-52.002 0-4.523-1.203-8.004-3.601-10.402-2.133-2.398-4.804-3.601-8.004-3.601s-5.871 1.203-8.004 3.601c-2.398 2.398-3.601 5.871-3.601 10.402 0 32.273 9.464 55.876 28.399 70.801 13.867 10.402 33.86 16.802 59.998 19.2v29.201c0 6.929 3.328 10.402 10.001 10.402 6.929 0 10.402-3.473 10.402-10.402v-28.8c24.26-1.852 44.527-9.728 60.8-23.603 17.323-14.925 26.001-33.997 26.001-57.199-.001-21.598-7.476-38.528-22.401-50.799zm-84.787-33.997c-20.54-5.325-35.2-12.527-43.998-21.598-8.533-8.798-12.8-20.002-12.8-33.604 0-16.529 6.4-29.602 19.2-39.202 10.402-7.723 22.929-12.126 37.598-13.201v107.605zm60.399 128.393c-11.204 8.277-24.533 13.201-40.004 14.797v-114.39c23.202 5.871 38.929 12.552 47.198 20.002 9.327 8.277 14.003 21.077 14.003 38.4.008 17.348-7.066 31.07-21.197 41.191z"/>
</svg>
