<svg width="262" height="79" viewBox="0 0 262 79" fill="none" xmlns="http://www.w3.org/2000/svg">
<path d="M98.1486 32.7403C97.9165 33.6683 97.7176 34.5797 97.552 35.4745L96.9554 38.159L105.655 36.3196L105.208 43.2795C101.794 43.8098 98.579 44.4229 95.5633 45.1189C94.7678 49.56 94.1379 53.9514 93.6743 58.2931L85.1729 60.4804L90.9898 24.8358L107.992 22.4496L107.395 31.6466C104.081 31.9448 100.999 32.3094 98.1486 32.7403ZM110.08 25.3329L118.63 23.7421C116.244 32.9226 114.405 41.3904 113.112 49.1457L121.862 47.8035L121.116 57.0502C116.609 57.4479 110.892 58.5913 103.965 60.4804L110.08 25.3329ZM140.206 21.5547C143.719 21.5547 146.205 23.5101 147.663 27.4209C148.425 29.4426 148.806 31.6631 148.806 34.0825C148.806 36.4025 148.459 38.9213 147.762 41.639C146.537 46.2789 144.415 50.5543 141.399 54.4651C137.72 59.2376 133.826 61.6239 129.716 61.6239C126.17 61.6239 123.652 59.6685 122.16 55.7576C121.431 53.8354 121.066 51.6812 121.066 49.2949C121.066 46.9418 121.431 44.3898 122.16 41.639C123.386 36.9659 125.491 32.6739 128.473 28.7631C132.152 23.9575 136.063 21.5547 140.206 21.5547ZM138.417 33.8837C136.593 33.8837 134.738 35.3751 132.849 38.3579C131.324 40.711 130.263 43.0144 129.667 45.2681C129.369 46.4612 129.219 47.5384 129.219 48.4995C129.219 49.8583 129.551 50.9686 130.214 51.8303C130.976 52.7914 132.036 53.272 133.395 53.272C135.252 53.272 136.925 52.2943 138.417 50.3388C139.61 48.7812 140.471 46.9418 141.001 44.8207C141.631 42.335 141.763 39.8825 141.399 37.463C141.001 35.0768 140.008 33.8837 138.417 33.8837ZM163.323 22.8969C166.77 22.8969 169.305 24.7695 170.929 28.5146L165.312 34.6791C164.549 33.8837 163.671 33.4859 162.677 33.4859C160.92 33.4859 159.098 34.9939 157.208 38.0099C155.65 40.4956 154.64 42.8156 154.176 44.9698C153.944 45.9973 153.828 46.9252 153.828 47.7537C153.828 49.9743 154.639 51.4988 156.264 52.3274C156.794 52.5925 157.357 52.7252 157.954 52.7252C159.677 52.7252 161.483 51.4492 163.372 48.8972L164.963 54.8131C161.682 58.4587 158.352 60.2816 154.971 60.2816C151.524 60.2816 149.005 58.4587 147.415 54.8131C146.454 52.692 145.973 50.3223 145.973 47.7041C145.973 45.7818 146.222 43.7435 146.718 41.5893C147.713 37.1814 149.602 33.1546 152.386 29.5089C155.733 25.1009 159.379 22.8969 163.323 22.8969ZM171.228 25.3329L179.778 23.7421C178.982 26.6586 178.419 28.962 178.088 30.6523C180.971 28.1335 183.606 25.714 185.993 23.3941L192.256 27.4706L182.462 36.1705L187.931 56.4039L178.982 61.1764L175.502 42.4344C174.475 47.7704 173.647 53.0565 173.017 58.2931L165.162 60.4804L171.228 25.3329ZM199.663 32.7403C199.399 33.7014 199.167 34.6459 198.968 35.5739L198.421 38.3082L206.375 36.6179L205.928 43.4784C202.149 44.1413 199.183 44.7213 197.029 45.2184C196.896 45.8812 196.78 46.5441 196.681 47.2069L196.333 49.1457L205.58 47.8035L204.933 57.0502C200.161 57.4479 194.112 58.5913 186.787 60.4804L192.703 24.8358L209.258 22.4496L208.612 31.6466C205.364 31.9448 202.381 32.3094 199.663 32.7403ZM211.247 25.2832C216.45 23.7256 220.709 22.9467 224.023 22.9467C228.498 22.9467 230.718 24.5044 230.685 27.6198C230.651 32.094 227.835 36.5848 222.233 41.0921C222.698 42.3516 224.62 46.3121 228 52.9737C226.277 54.5645 223.675 56.9011 220.195 59.9833L214.876 46.2624H214.826C214.031 50.604 213.434 54.6143 213.036 58.2931L205.182 60.4804C205.248 59.7513 205.613 57.5474 206.275 53.8685L211.247 25.2832ZM217.511 33.1379C217.213 34.2648 216.947 35.3917 216.715 36.5185L216.019 39.899C217.179 39.3025 218.322 38.5236 219.45 37.5625C220.742 36.4356 221.604 35.3585 222.035 34.3311C222.2 34.0328 222.283 33.7511 222.283 33.4859C222.283 32.7568 221.802 32.3923 220.841 32.3923C220.079 32.3923 218.969 32.6408 217.511 33.1379ZM253.105 33.3865C251.714 34.7785 248.963 37.7614 244.853 42.335C243.462 43.8264 242.086 45.3178 240.727 46.8092C238.937 48.7646 237.678 50.2892 236.949 51.3828L248.681 50.5874L247.637 59.8839C239.053 60.1159 231.894 60.6296 226.161 61.425L226.21 52.228C227.602 50.604 230.37 47.5715 234.513 43.1304L243.113 33.9334C240.263 34.1654 237.197 34.5465 233.916 35.0768L234.264 25.6809L254.398 24.0901C254.1 26.1449 253.669 29.2437 253.105 33.3865Z" fill="white"/>
<mask id="mask0_1366_1517" style="mask-type:luminance" maskUnits="userSpaceOnUse" x="80" y="16" width="179" height="50">
<path d="M258.607 16.9902H80.7725V65.8607H258.607V16.9902Z" fill="white"/>
<path d="M98.1496 32.7403C97.9175 33.6683 97.7186 34.5797 97.553 35.4745L96.9564 38.159L105.656 36.3196L105.209 43.2795C101.795 43.8098 98.58 44.4229 95.5642 45.1189C94.7687 49.56 94.1388 53.9514 93.6753 58.2931L85.1738 60.4804L90.9908 24.8358L107.993 22.4496L107.396 31.6466C104.082 31.9448 101 32.3094 98.1496 32.7403ZM110.081 25.3329L118.631 23.7421C116.245 32.9226 114.406 41.3904 113.113 49.1457L121.863 47.8035L121.117 57.0502C116.61 57.4479 110.893 58.5913 103.966 60.4804L110.081 25.3329ZM140.207 21.5547C143.72 21.5547 146.206 23.5101 147.664 27.4209C148.426 29.4426 148.807 31.6631 148.807 34.0825C148.807 36.4025 148.46 38.9213 147.763 41.639C146.537 46.2789 144.416 50.5543 141.4 54.4651C137.721 59.2376 133.827 61.6239 129.717 61.6239C126.171 61.6239 123.653 59.6685 122.161 55.7576C121.432 53.8354 121.067 51.6812 121.067 49.2949C121.067 46.9418 121.432 44.3898 122.161 41.639C123.387 36.9659 125.492 32.6739 128.474 28.7631C132.153 23.9575 136.064 21.5547 140.207 21.5547ZM138.418 33.8837C136.594 33.8837 134.739 35.3751 132.85 38.3579C131.325 40.711 130.264 43.0144 129.668 45.2681C129.37 46.4612 129.22 47.5384 129.22 48.4995C129.22 49.8583 129.552 50.9686 130.215 51.8303C130.977 52.7914 132.037 53.272 133.396 53.272C135.252 53.272 136.926 52.2943 138.418 50.3388C139.611 48.7812 140.472 46.9418 141.002 44.8207C141.632 42.335 141.764 39.8825 141.4 37.463C141.002 35.0768 140.009 33.8837 138.418 33.8837ZM163.324 22.8969C166.771 22.8969 169.306 24.7695 170.93 28.5146L165.313 34.6791C164.55 33.8837 163.672 33.4859 162.678 33.4859C160.921 33.4859 159.099 34.9939 157.209 38.0099C155.651 40.4956 154.64 42.8156 154.177 44.9698C153.945 45.9973 153.829 46.9252 153.829 47.7537C153.829 49.9743 154.64 51.4988 156.265 52.3274C156.795 52.5925 157.358 52.7252 157.955 52.7252C159.678 52.7252 161.484 51.4492 163.373 48.8972L164.964 54.8131C161.683 58.4587 158.353 60.2816 154.972 60.2816C151.525 60.2816 149.006 58.4587 147.416 54.8131C146.455 52.692 145.974 50.3223 145.974 47.7041C145.974 45.7818 146.223 43.7435 146.719 41.5893C147.714 37.1814 149.603 33.1546 152.387 29.5089C155.734 25.1009 159.38 22.8969 163.324 22.8969ZM171.229 25.3329L179.779 23.7421C178.983 26.6586 178.42 28.962 178.089 30.6523C180.972 28.1335 183.607 25.714 185.994 23.3941L192.257 27.4706L182.463 36.1705L187.932 56.4039L178.983 61.1764L175.503 42.4344C174.476 47.7704 173.648 53.0565 173.018 58.2931L165.163 60.4804L171.229 25.3329ZM199.664 32.7403C199.4 33.7014 199.168 34.6459 198.969 35.5739L198.422 38.3082L206.376 36.6179L205.929 43.4784C202.15 44.1413 199.184 44.7213 197.029 45.2184C196.897 45.8812 196.781 46.5441 196.682 47.2069L196.334 49.1457L205.58 47.8035L204.934 57.0502C200.162 57.4479 194.113 58.5913 186.788 60.4804L192.704 24.8358L209.259 22.4496L208.613 31.6466C205.365 31.9448 202.382 32.3094 199.664 32.7403ZM211.248 25.2832C216.451 23.7256 220.71 22.9467 224.024 22.9467C228.499 22.9467 230.719 24.5044 230.686 27.6198C230.652 32.094 227.836 36.5848 222.234 41.0921C222.699 42.3516 224.621 46.3121 228.001 52.9737C226.278 54.5645 223.676 56.9011 220.196 59.9833L214.877 46.2624H214.827C214.032 50.604 213.435 54.6143 213.037 58.2931L205.183 60.4804C205.249 59.7513 205.614 57.5474 206.276 53.8685L211.248 25.2832ZM217.512 33.1379C217.214 34.2648 216.948 35.3917 216.716 36.5185L216.02 39.899C217.18 39.3025 218.323 38.5236 219.451 37.5625C220.743 36.4356 221.605 35.3585 222.036 34.3311C222.201 34.0328 222.284 33.7511 222.284 33.4859C222.284 32.7568 221.803 32.3923 220.842 32.3923C220.08 32.3923 218.97 32.6408 217.512 33.1379ZM253.106 33.3865C251.715 34.7785 248.964 37.7614 244.854 42.335C243.463 43.8264 242.087 45.3178 240.728 46.8092C238.938 48.7646 237.679 50.2892 236.95 51.3828L248.682 50.5874L247.638 59.8839C239.054 60.1159 231.895 60.6296 226.162 61.425L226.211 52.228C227.603 50.604 230.371 47.5715 234.514 43.1304L243.114 33.9334C240.264 34.1654 237.198 34.5465 233.917 35.0768L234.265 25.6809L254.399 24.0901C254.101 26.1449 253.67 29.2437 253.106 33.3865Z" fill="black"/>
</mask>
<g mask="url(#mask0_1366_1517)">
<path d="M98.1497 32.7405L97.5408 28.7137C95.9152 28.9594 94.5971 30.1581 94.1986 31.7528L98.1497 32.7405ZM97.5531 35.4748L101.529 36.3582C101.539 36.3111 101.548 36.2638 101.557 36.2164L97.5531 35.4748ZM96.9564 38.1593L92.9809 37.2758C92.6803 38.6278 93.0875 40.0398 94.0615 41.0241C95.0362 42.0085 96.444 42.4303 97.7988 42.1437L96.9564 38.1593ZM105.656 36.3199L109.72 36.5812C109.802 35.31 109.284 34.0738 108.321 33.2403C107.358 32.4068 106.06 32.072 104.814 32.3354L105.656 36.3199ZM105.209 43.2798L105.834 47.3041C107.721 47.011 109.15 45.4465 109.273 43.5411L105.209 43.2798ZM95.5643 45.1192L94.6487 41.151C93.0597 41.5176 91.8427 42.7964 91.5556 44.4012L95.5643 45.1192ZM93.6753 58.2933L94.6901 62.2374C96.3347 61.8142 97.5442 60.4148 97.7248 58.7261L93.6753 58.2933ZM85.1739 60.4807L81.155 59.8248C80.933 61.1821 81.4115 62.5595 82.427 63.4872C83.4424 64.4148 84.8569 64.7675 86.1893 64.4248L85.1739 60.4807ZM90.9908 24.8361L90.4248 20.803C88.658 21.051 87.2584 22.4196 86.9712 24.1802L90.9908 24.8361ZM107.993 22.4498L112.057 22.7134C112.136 21.491 111.661 20.2978 110.763 19.4646C109.865 18.6314 108.64 18.2466 107.427 18.4168L107.993 22.4498ZM107.396 31.6468L107.761 35.703C109.76 35.523 111.33 33.9134 111.46 31.9104L107.396 31.6468ZM94.1986 31.7528C93.9468 32.7582 93.7303 33.7517 93.5484 34.7332L101.557 36.2164C101.707 35.4082 101.888 34.5789 102.1 33.7283L94.1986 31.7528ZM93.5776 34.5913L92.9809 37.2758L100.932 39.0428L101.529 36.3582L93.5776 34.5913ZM97.7988 42.1437L106.498 40.3044L104.814 32.3354L96.1141 34.1749L97.7988 42.1437ZM101.592 36.0586L101.144 43.0185L109.273 43.5411L109.72 36.5812L101.592 36.0586ZM104.584 39.2556C101.083 39.7993 97.7709 40.4304 94.6487 41.151L96.4799 49.0875C99.3898 48.416 102.507 47.8209 105.834 47.3041L104.584 39.2556ZM91.5556 44.4012C90.7438 48.9338 90.1003 53.4203 89.6259 57.8606L97.7248 58.7261C98.1782 54.4831 98.7938 50.1869 99.573 45.8372L91.5556 44.4012ZM92.6606 54.3493L84.1592 56.5366L86.1893 64.4248L94.6901 62.2374L92.6606 54.3493ZM89.1935 61.1366L95.0098 25.492L86.9712 24.1802L81.155 59.8248L89.1935 61.1366ZM91.5569 28.8691L108.558 26.4828L107.427 18.4168L90.4248 20.803L91.5569 28.8691ZM103.929 22.1862L103.332 31.3832L111.46 31.9104L112.057 22.7134L103.929 22.1862ZM107.031 27.5907C103.648 27.8952 100.483 28.2689 97.5408 28.7137L98.7578 36.7673C101.516 36.3504 104.516 35.995 107.761 35.703L107.031 27.5907ZM110.081 25.3332L109.336 21.3293C107.663 21.6406 106.36 22.9589 106.069 24.6352L110.081 25.3332ZM118.631 23.7424L122.573 24.7669C122.924 23.4186 122.56 21.9848 121.611 20.9657C120.661 19.9466 119.256 19.4837 117.887 19.7385L118.631 23.7424ZM113.113 49.146L109.096 48.4765C108.881 49.7647 109.298 51.0777 110.215 52.0071C111.132 52.9365 112.44 53.3695 113.731 53.1714L113.113 49.146ZM121.863 47.8038L125.922 48.1311C126.022 46.8899 125.549 45.671 124.637 44.8226C123.726 43.9742 122.476 43.5895 121.245 43.7783L121.863 47.8038ZM121.117 57.0505L121.475 61.1073C123.453 60.9327 125.017 59.3571 125.176 57.3778L121.117 57.0505ZM103.966 60.4807L99.9538 59.7827C99.7149 61.1553 100.194 62.5548 101.224 63.4925C102.255 64.4304 103.693 64.7763 105.038 64.4097L103.966 60.4807ZM110.825 29.337L119.376 27.7462L117.887 19.7385L109.336 21.3293L110.825 29.337ZM114.69 22.7179C112.279 31.9925 110.412 40.5804 109.096 48.4765L117.13 49.8155C118.4 42.201 120.211 33.8531 122.573 24.7669L114.69 22.7179ZM113.731 53.1714L122.48 51.8292L121.245 43.7783L112.496 45.1206L113.731 53.1714ZM117.804 47.4764L117.058 56.7231L125.176 57.3778L125.922 48.1311L117.804 47.4764ZM120.759 52.9937C115.913 53.4213 109.936 54.6312 102.894 56.5517L105.038 64.4097C111.849 62.552 117.306 61.4751 121.475 61.1073L120.759 52.9937ZM107.978 61.1787L114.093 26.0312L106.069 24.6352L99.9538 59.7827L107.978 61.1787ZM147.664 27.4212L143.848 28.8441C143.85 28.8487 143.852 28.8534 143.854 28.858L147.664 27.4212ZM147.763 41.6393L151.701 42.6798C151.704 42.6698 151.706 42.6597 151.709 42.6496L147.763 41.6393ZM141.4 54.4654L138.175 51.9783L138.175 51.9791L141.4 54.4654ZM122.161 55.7579L118.354 57.2023L118.356 57.2091L122.161 55.7579ZM122.161 41.6393L126.097 42.6827C126.099 42.6794 126.1 42.6762 126.1 42.673L122.161 41.6393ZM128.474 28.7634L125.241 26.2879L125.237 26.2936L128.474 28.7634ZM132.85 38.3582L136.267 40.5726C136.275 40.5608 136.283 40.549 136.29 40.5372L132.85 38.3582ZM129.668 45.2683L125.731 44.2262C125.726 44.2443 125.721 44.2625 125.717 44.2806L129.668 45.2683ZM130.215 51.8306L126.987 54.3136C126.999 54.3296 127.011 54.3454 127.024 54.3612L130.215 51.8306ZM138.418 50.3391L135.184 47.8627L135.179 47.8693L138.418 50.3391ZM141.002 44.821L137.055 43.8208C137.054 43.825 137.053 43.8291 137.051 43.8332L141.002 44.821ZM141.4 37.4633L145.427 36.8565C145.424 36.8356 145.421 36.8147 145.418 36.7938L141.4 37.4633ZM140.207 25.6275C141.158 25.6275 141.743 25.8722 142.188 26.2224C142.684 26.6122 143.299 27.3708 143.848 28.8441L151.48 25.9983C150.571 23.5608 149.215 21.3862 147.224 19.8207C145.183 18.2154 142.77 17.4824 140.207 17.4824V25.6275ZM143.854 28.858C144.423 30.3688 144.735 32.0958 144.735 34.0828H152.88C152.88 31.231 152.43 28.517 151.475 25.9844L143.854 28.858ZM144.735 34.0828C144.735 35.9998 144.447 38.1751 143.818 40.6289L151.709 42.6496C152.473 39.6681 152.88 36.8058 152.88 34.0828H144.735ZM143.826 40.5987C142.743 44.6985 140.87 48.4846 138.175 51.9783L144.625 56.9524C147.963 52.6245 150.332 47.86 151.701 42.6798L143.826 40.5987ZM138.175 51.9791C134.893 56.2368 132.057 57.5516 129.717 57.5516V65.6967C135.597 65.6967 140.55 62.2396 144.625 56.9524L138.175 51.9791ZM129.717 57.5516C128.742 57.5516 128.131 57.3015 127.666 56.9406C127.154 56.5426 126.527 55.7777 125.966 54.3068L118.356 57.2091C119.286 59.6489 120.665 61.8172 122.671 63.3745C124.726 64.9691 127.148 65.6967 129.717 65.6967V57.5516ZM125.969 54.3136C125.44 52.9205 125.14 51.266 125.14 49.2952H116.995C116.995 52.0969 117.424 54.7508 118.354 57.2023L125.969 54.3136ZM125.14 49.2952C125.14 47.3587 125.44 45.1615 126.097 42.6827L118.225 40.5958C117.423 43.6187 116.995 46.5254 116.995 49.2952H125.14ZM126.1 42.673C127.188 38.5297 129.05 34.7243 131.713 31.2332L125.237 26.2936C121.933 30.6242 119.588 35.4027 118.222 40.6056L126.1 42.673ZM131.709 31.239C134.987 26.9557 137.838 25.6275 140.207 25.6275V17.4824C134.291 17.4824 129.32 20.9599 125.241 26.2879L131.709 31.239ZM138.418 29.8114C134.297 29.8114 131.38 33.0662 129.409 36.1792L136.29 40.5372C137.099 39.2595 137.756 38.5416 138.209 38.1771C138.638 37.833 138.685 37.9565 138.418 37.9565V29.8114ZM129.432 36.1437C127.719 38.787 126.457 41.4824 125.731 44.2262L133.605 46.3105C134.072 44.5469 134.931 42.6356 136.267 40.5726L129.432 36.1437ZM125.717 44.2806C125.359 45.7118 125.148 47.1281 125.148 48.4998H133.293C133.293 47.9492 133.38 47.2112 133.619 46.2561L125.717 44.2806ZM125.148 48.4998C125.148 50.5282 125.652 52.5779 126.987 54.3136L133.443 49.3475C133.434 49.3365 133.404 49.2966 133.371 49.1867C133.336 49.0682 133.293 48.8509 133.293 48.4998H125.148ZM127.024 54.3612C128.649 56.4101 130.947 57.3448 133.396 57.3448V49.1997C133.296 49.1997 133.243 49.1909 133.226 49.1876C133.212 49.1847 133.228 49.1865 133.262 49.2023C133.298 49.2186 133.336 49.2414 133.369 49.2671C133.4 49.2922 133.412 49.3078 133.406 49.2999L127.024 54.3612ZM133.396 57.3448C136.911 57.3448 139.665 55.4186 141.655 52.8089L135.179 47.8693C134.187 49.1705 133.593 49.1997 133.396 49.1997V57.3448ZM141.651 52.8156C143.219 50.768 144.304 48.408 144.953 45.8087L137.051 43.8332C136.641 45.4761 136.002 46.795 135.184 47.8627L141.651 52.8156ZM144.951 45.821C145.707 42.836 145.876 39.8371 145.427 36.8565L137.373 38.0701C137.653 39.9284 137.558 41.8345 137.055 43.8208L144.951 45.821ZM145.418 36.7938C145.16 35.2506 144.634 33.551 143.485 32.1716C142.193 30.6208 140.387 29.8114 138.418 29.8114V37.9565C138.295 37.9565 138.064 37.9308 137.792 37.8053C137.518 37.6787 137.33 37.5094 137.228 37.3859C137.137 37.2767 137.144 37.2434 137.194 37.3734C137.245 37.5034 137.319 37.7445 137.383 38.1328L145.418 36.7938ZM170.93 28.5149L173.94 31.258C175.02 30.0732 175.304 28.3653 174.667 26.8947L170.93 28.5149ZM165.313 34.6793L162.372 37.4972C163.153 38.3115 164.235 38.7657 165.364 38.7516C166.492 38.7374 167.563 38.2562 168.323 37.4225L165.313 34.6793ZM157.209 38.0102L160.66 40.1728L160.66 40.172L157.209 38.0102ZM154.177 44.9701L158.149 45.8671C158.152 45.854 158.155 45.8407 158.158 45.8276L154.177 44.9701ZM156.265 52.3277L154.414 55.9554C154.423 55.9604 154.434 55.9653 154.443 55.9703L156.265 52.3277ZM163.373 48.8974L167.307 47.8399C166.901 46.3309 165.667 45.187 164.132 44.8961C162.596 44.6052 161.03 45.2184 160.1 46.4743L163.373 48.8974ZM164.964 54.8134L167.992 57.5377C168.915 56.512 169.256 55.0885 168.897 53.7558L164.964 54.8134ZM147.416 54.8134L151.148 53.1846C151.141 53.1672 151.133 53.1498 151.125 53.1325L147.416 54.8134ZM146.719 41.5895L150.688 42.5053C150.69 42.4987 150.691 42.4922 150.692 42.4856L146.719 41.5895ZM152.387 29.5092L155.623 31.9808C155.626 31.9779 155.628 31.975 155.63 31.9721L152.387 29.5092ZM163.324 26.9697C164.263 26.9697 164.89 27.2076 165.391 27.5776C165.935 27.9795 166.585 28.731 167.193 30.1351L174.667 26.8947C173.651 24.5536 172.221 22.4963 170.23 21.0257C168.196 19.5232 165.833 18.8247 163.324 18.8247V26.9697ZM167.92 25.7717L162.302 31.9363L168.323 37.4225L173.94 31.258L167.92 25.7717ZM168.253 31.8615C166.814 30.3602 164.908 29.4137 162.678 29.4137V37.5587C162.653 37.5587 162.611 37.5561 162.556 37.5445C162.501 37.5328 162.448 37.5151 162.402 37.4944C162.306 37.4506 162.3 37.4214 162.372 37.4972L168.253 31.8615ZM162.678 29.4137C160.567 29.4137 158.785 30.3311 157.397 31.4793C156.027 32.6133 154.829 34.138 153.757 35.8484L160.66 40.172C161.478 38.8664 162.137 38.1292 162.589 37.7552C163.024 37.3954 163.031 37.5587 162.678 37.5587V29.4137ZM153.758 35.8476C152.027 38.6094 150.786 41.3709 150.195 44.1126L158.158 45.8276C158.495 44.2607 159.276 42.3823 160.66 40.1728L153.758 35.8476ZM150.204 44.073C149.923 45.3196 149.756 46.5553 149.756 47.754H157.901C157.901 47.2956 157.966 46.6753 158.149 45.8671L150.204 44.073ZM149.756 47.754C149.756 51.1039 151.102 54.2659 154.414 55.9554L158.116 48.7001C158.041 48.6621 158.021 48.6402 158.028 48.6466C158.036 48.6546 158.039 48.661 158.032 48.6484C158.017 48.6198 157.901 48.3821 157.901 47.754H149.756ZM154.443 55.9703C155.543 56.52 156.73 56.798 157.955 56.798V48.6529C157.961 48.6529 157.984 48.6538 158.017 48.6617C158.051 48.6695 158.075 48.6798 158.086 48.6851L154.443 55.9703ZM157.955 56.798C161.735 56.798 164.603 54.0818 166.647 51.3205L160.1 46.4743C159.311 47.5404 158.684 48.1372 158.252 48.4421C157.842 48.732 157.765 48.6529 157.955 48.6529V56.798ZM159.441 49.955L161.032 55.8709L168.897 53.7558L167.307 47.8399L159.441 49.955ZM161.937 52.089C159.074 55.2704 156.758 56.2093 154.972 56.2093V64.3544C159.948 64.3544 164.292 61.6476 167.992 57.5377L161.937 52.089ZM154.972 56.2093C154.009 56.2093 153.375 55.9699 152.885 55.6155C152.359 55.2343 151.733 54.5234 151.148 53.1846L143.683 56.4422C144.689 58.749 146.118 60.7724 148.11 62.214C150.14 63.6825 152.489 64.3544 154.972 64.3544V56.2093ZM151.125 53.1325C150.432 51.6015 150.047 49.8151 150.047 47.7043H141.902C141.902 50.8301 142.477 53.783 143.706 56.4942L151.125 53.1325ZM150.047 47.7043C150.047 46.1322 150.25 44.4031 150.688 42.5053L142.751 40.6738C142.195 43.0846 141.902 45.4319 141.902 47.7043H150.047ZM150.692 42.4856C151.556 38.6587 153.19 35.1677 155.623 31.9808L149.15 27.0375C146.016 31.1419 143.872 35.7046 142.747 40.6935L150.692 42.4856ZM155.63 31.9721C158.537 28.1439 161.115 26.9697 163.324 26.9697V18.8247C157.645 18.8247 152.931 22.0585 149.143 27.0462L155.63 31.9721ZM171.229 25.3332L170.483 21.3293C168.809 21.641 167.505 22.962 167.215 24.6407L171.229 25.3332ZM179.779 23.7424L183.708 24.8139C184.077 23.4616 183.725 22.0147 182.775 20.9836C181.825 19.9525 180.412 19.4822 179.034 19.7385L179.779 23.7424ZM178.089 30.6525L174.092 29.8689C173.758 31.5776 174.546 33.3103 176.054 34.1803C177.562 35.0503 179.457 34.8652 180.768 33.7196L178.089 30.6525ZM185.994 23.3944L188.215 19.981C186.62 18.9431 184.519 19.148 183.154 20.4744L185.994 23.3944ZM192.257 27.4709L194.962 30.5156C195.912 29.672 196.413 28.4336 196.318 27.167C196.224 25.9003 195.543 24.7504 194.479 24.0575L192.257 27.4709ZM182.463 36.1708L179.759 33.1261C178.604 34.1518 178.129 35.7424 178.532 37.2334L182.463 36.1708ZM187.932 56.4042L189.849 59.9976C191.523 59.1047 192.359 57.1735 191.864 55.3416L187.932 56.4042ZM178.983 61.1767L174.979 61.9202C175.216 63.1964 176.048 64.2832 177.217 64.8462C178.387 65.4093 179.755 65.381 180.9 64.7702L178.983 61.1767ZM175.503 42.4347L179.508 41.6912C179.15 39.7667 177.475 38.3686 175.517 38.3622C173.56 38.3557 171.875 39.7426 171.505 41.6647L175.503 42.4347ZM173.018 58.2933L174.111 62.2165C175.7 61.7741 176.864 60.417 177.061 58.7795L173.018 58.2933ZM165.163 60.4807L161.15 59.7882C160.913 61.164 161.397 62.5655 162.432 63.5018C163.468 64.438 164.911 64.7785 166.256 64.404L165.163 60.4807ZM171.973 29.337L180.524 27.7462L179.034 19.7385L170.483 21.3293L171.973 29.337ZM175.85 22.6708C175.045 25.6232 174.452 28.0361 174.092 29.8689L182.085 31.4362C182.389 29.8885 182.922 27.6947 183.708 24.8139L175.85 22.6708ZM180.768 33.7196C183.698 31.1601 186.387 28.6916 188.832 26.3143L183.154 20.4744C180.827 22.7371 178.246 25.1074 175.41 27.5855L180.768 33.7196ZM183.772 26.8077L190.036 30.8843L194.479 24.0575L188.215 19.981L183.772 26.8077ZM189.552 24.4262L179.759 33.1261L185.168 39.2155L194.962 30.5156L189.552 24.4262ZM178.532 37.2334L184.001 57.4667L191.864 55.3416L186.395 35.1082L178.532 37.2334ZM186.015 52.8108L177.067 57.5833L180.9 64.7702L189.849 59.9976L186.015 52.8108ZM182.988 60.4333L179.508 41.6912L171.499 43.1782L174.979 61.9202L182.988 60.4333ZM171.505 41.6647C170.46 47.0918 169.616 52.4727 168.975 57.8071L177.061 58.7795C177.68 53.6409 178.493 48.4494 179.503 43.2047L171.505 41.6647ZM171.926 54.3701L164.071 56.5575L166.256 64.404L174.111 62.2165L171.926 54.3701ZM169.177 61.1732L175.241 26.0257L167.215 24.6407L161.15 59.7882L169.177 61.1732ZM199.665 32.7405L199.027 28.7182C197.449 28.9683 196.163 30.1177 195.739 31.6575L199.665 32.7405ZM198.969 35.5742L194.987 34.7209C194.982 34.7391 194.979 34.7572 194.975 34.7755L198.969 35.5742ZM198.422 38.3084L194.429 37.5097C194.16 38.8535 194.585 40.2423 195.559 41.2054C196.534 42.1685 197.928 42.5769 199.268 42.2921L198.422 38.3084ZM206.376 36.6182L210.44 36.8832C210.523 35.6107 210.005 34.3728 209.041 33.5384C208.076 32.704 206.777 32.3695 205.53 32.6346L206.376 36.6182ZM205.929 43.4787L206.632 47.49C208.482 47.1654 209.87 45.6179 209.992 43.7437L205.929 43.4787ZM197.03 45.2186L196.114 41.2504C194.554 41.6103 193.35 42.8504 193.036 44.42L197.03 45.2186ZM196.682 47.2072L200.69 47.9267C200.697 47.8883 200.704 47.8498 200.709 47.8113L196.682 47.2072ZM196.334 49.146L192.325 48.4265C192.094 49.7151 192.496 51.0362 193.406 51.9772C194.317 52.9182 195.623 53.3644 196.919 53.1763L196.334 49.146ZM205.581 47.8038L209.643 48.0877C209.729 46.8588 209.254 45.6571 208.351 44.8189C207.448 43.9809 206.215 43.5965 204.995 43.7734L205.581 47.8038ZM204.934 57.0505L205.272 61.109C207.275 60.942 208.857 59.3392 208.997 57.3344L204.934 57.0505ZM186.788 60.4807L182.771 59.8139C182.546 61.173 183.023 62.5539 184.038 63.4843C185.054 64.4146 186.472 64.7683 187.806 64.4242L186.788 60.4807ZM192.705 24.8361L192.124 20.8052C190.368 21.0583 188.977 22.4191 188.687 24.1693L192.705 24.8361ZM209.259 22.4498L213.322 22.7353C213.408 21.5068 212.934 20.3053 212.032 19.4669C211.13 18.6285 209.897 18.2432 208.678 18.4189L209.259 22.4498ZM208.613 31.6468L208.985 35.7023C210.973 35.5198 212.536 33.9235 212.676 31.9323L208.613 31.6468ZM195.739 31.6575C195.453 32.6908 195.202 33.712 194.987 34.7209L202.951 36.4275C203.132 35.5804 203.345 34.7125 203.59 33.8236L195.739 31.6575ZM194.975 34.7755L194.429 37.5097L202.415 39.1071L202.962 36.3729L194.975 34.7755ZM199.268 42.2921L207.222 40.6018L205.53 32.6346L197.575 34.3249L199.268 42.2921ZM202.312 36.3531L201.864 43.2136L209.992 43.7437L210.44 36.8832L202.312 36.3531ZM205.225 39.4674C201.419 40.1351 198.371 40.7295 196.114 41.2504L197.945 49.1869C199.997 48.7135 202.882 48.148 206.632 47.49L205.225 39.4674ZM193.036 44.42C192.891 45.1468 192.764 45.8745 192.654 46.603L200.709 47.8113C200.799 47.2141 200.903 46.6161 201.023 46.0173L193.036 44.42ZM192.673 46.4877L192.325 48.4265L200.343 49.8655L200.69 47.9267L192.673 46.4877ZM196.919 53.1763L206.166 51.8341L204.995 43.7734L195.749 45.1158L196.919 53.1763ZM201.518 47.5198L200.871 56.7665L208.997 57.3344L209.643 48.0877L201.518 47.5198ZM204.596 52.992C199.502 53.4165 193.207 54.6196 185.772 56.5373L187.806 64.4242C195.02 62.5637 200.821 61.4799 205.272 61.109L204.596 52.992ZM190.806 61.1475L196.722 25.5029L188.687 24.1693L182.771 59.8139L190.806 61.1475ZM193.286 28.8669L209.84 26.4807L208.678 18.4189L192.124 20.8052L193.286 28.8669ZM205.197 22.1643L204.55 31.3614L212.676 31.9323L213.322 22.7353L205.197 22.1643ZM208.241 27.5913C204.919 27.8964 201.847 28.2711 199.027 28.7182L200.303 36.7628C202.918 36.3482 205.811 35.9939 208.985 35.7023L208.241 27.5913ZM211.248 25.2835L210.08 21.382C208.601 21.8246 207.5 23.0651 207.235 24.5857L211.248 25.2835ZM230.686 27.6201L226.614 27.5767C226.614 27.5811 226.613 27.5855 226.613 27.5899L230.686 27.6201ZM222.234 41.0924L219.681 37.9196C218.319 39.0159 217.808 40.8595 218.413 42.5003L222.234 41.0924ZM228.001 52.974L230.764 55.9665C232.102 54.7306 232.457 52.7558 231.633 51.131L228.001 52.974ZM220.196 59.9836L216.399 61.4557C216.881 62.6985 217.941 63.6269 219.236 63.9413C220.531 64.2556 221.899 63.9161 222.896 63.0322L220.196 59.9836ZM214.877 46.2626L218.674 44.7906C218.066 43.2231 216.558 42.1901 214.877 42.1901V46.2626ZM214.827 46.2626V42.1901C212.861 42.1901 211.176 43.5948 210.821 45.5287L214.827 46.2626ZM213.037 58.2933L214.13 62.2165C215.736 61.7693 216.908 60.3885 217.087 58.7311L213.037 58.2933ZM205.183 60.4807L201.127 60.112C201.006 61.4447 201.547 62.7519 202.575 63.6088C203.603 64.4657 204.986 64.763 206.276 64.404L205.183 60.4807ZM206.276 53.8688L210.284 54.591C210.286 54.5828 210.288 54.5748 210.289 54.5666L206.276 53.8688ZM217.512 33.1382L216.198 29.2836C214.908 29.7233 213.924 30.7789 213.575 32.0961L217.512 33.1382ZM216.02 39.8993L212.031 39.0781C211.715 40.6138 212.309 42.1947 213.557 43.1428C214.806 44.091 216.489 44.2381 217.883 43.5209L216.02 39.8993ZM219.451 37.5628L222.093 40.6613C222.105 40.6518 222.116 40.6421 222.127 40.6325L219.451 37.5628ZM222.036 34.3314L218.476 32.3536C218.403 32.4842 218.338 32.6186 218.28 32.7564L222.036 34.3314ZM212.416 29.1849C217.449 27.6782 221.277 27.0195 224.024 27.0195V18.8744C220.143 18.8744 215.453 19.7734 210.08 21.382L212.416 29.1849ZM224.024 27.0195C224.92 27.0195 225.575 27.0987 226.034 27.2056C226.494 27.3124 226.676 27.4277 226.707 27.4492C226.71 27.4518 226.644 27.3961 226.6 27.3021C226.566 27.2294 226.617 27.2841 226.614 27.5767L234.758 27.6634C234.787 24.9942 233.771 22.4551 231.384 20.7812C229.273 19.3002 226.605 18.8744 224.024 18.8744V27.0195ZM226.613 27.5899C226.593 30.2587 224.903 33.7172 219.681 37.9196L224.788 44.2652C230.768 39.4529 234.712 33.9298 234.758 27.6502L226.613 27.5899ZM218.413 42.5003C218.982 44.0434 221.052 48.2792 224.37 54.8169L231.633 51.131C228.19 44.3455 226.416 40.6603 226.056 39.6845L218.413 42.5003ZM225.239 49.9815C223.547 51.543 220.971 53.857 217.496 56.9349L222.896 63.0322C226.381 59.9457 229.008 57.5867 230.764 55.9665L225.239 49.9815ZM223.993 58.5115L218.674 44.7906L211.08 47.7347L216.399 61.4557L223.993 58.5115ZM214.877 42.1901H214.827V50.3352H214.877V42.1901ZM210.821 45.5287C210.011 49.9505 209.399 54.0609 208.989 57.8556L217.087 58.7311C217.472 55.1681 218.053 51.2581 218.833 46.9965L210.821 45.5287ZM211.945 54.3701L204.09 56.5575L206.276 64.404L214.13 62.2165L211.945 54.3701ZM209.238 60.8495C209.285 60.3446 209.605 58.3633 210.284 54.591L202.268 53.1467C201.623 56.7319 201.213 59.1585 201.127 60.112L209.238 60.8495ZM210.289 54.5666L215.26 25.9813L207.235 24.5857L202.264 53.171L210.289 54.5666ZM213.575 32.0961C213.257 33.2951 212.975 34.4956 212.727 35.6975L220.705 37.34C220.922 36.2883 221.17 35.235 221.449 34.1804L213.575 32.0961ZM212.727 35.6975L212.031 39.0781L220.01 40.7205L220.705 37.34L212.727 35.6975ZM217.883 43.5209C219.357 42.7628 220.759 41.7993 222.093 40.6613L216.808 34.4642C215.888 35.2484 215.004 35.8426 214.158 36.2776L217.883 43.5209ZM222.127 40.6325C223.66 39.2962 225.025 37.7345 225.791 35.9063L218.28 32.7564C218.185 32.983 217.827 33.5756 216.775 34.493L222.127 40.6325ZM225.596 36.3092C226.004 35.5752 226.357 34.6143 226.357 33.4862H218.212C218.212 32.8884 218.4 32.4909 218.476 32.3536L225.596 36.3092ZM226.357 33.4862C226.357 32.1453 225.856 30.5374 224.385 29.4214C223.126 28.4665 221.722 28.32 220.842 28.32V36.4651C220.839 36.4651 220.7 36.4661 220.475 36.4091C220.245 36.351 219.866 36.217 219.462 35.9105C219.036 35.5871 218.687 35.1503 218.465 34.646C218.254 34.1656 218.212 33.7464 218.212 33.4862H226.357ZM220.842 28.32C219.378 28.32 217.738 28.7583 216.198 29.2836L218.826 36.9929C219.461 36.7764 219.957 36.6363 220.328 36.5531C220.719 36.4655 220.868 36.4651 220.842 36.4651V28.32ZM253.106 33.3868L255.986 36.2665C256.616 35.6368 257.022 34.8181 257.142 33.9356L253.106 33.3868ZM244.854 42.3352L247.832 45.1141C247.849 45.0953 247.866 45.0763 247.883 45.0572L244.854 42.3352ZM240.728 46.8095L243.732 49.5591L243.738 49.5523L240.728 46.8095ZM236.95 51.3831L233.561 49.1241C232.701 50.415 232.648 52.0828 233.427 53.4252C234.204 54.7676 235.677 55.5513 237.226 55.4464L236.95 51.3831ZM248.682 50.5877L252.729 51.0422C252.864 49.8424 252.46 48.6446 251.625 47.7723C250.79 46.8999 249.611 46.4429 248.407 46.5245L248.682 50.5877ZM247.638 59.8841L247.748 63.9552C249.779 63.9003 251.458 62.3574 251.685 60.3386L247.638 59.8841ZM226.162 61.4253L222.089 61.4033C222.083 62.5848 222.59 63.7109 223.479 64.4892C224.368 65.2676 225.551 65.6215 226.722 65.4592L226.162 61.4253ZM226.211 52.2282L223.12 49.5779C222.492 50.3103 222.144 51.2417 222.139 52.2062L226.211 52.2282ZM234.514 43.1307L231.54 40.3491L231.536 40.3527L234.514 43.1307ZM243.114 33.9336L246.089 36.7153C247.238 35.4863 247.513 33.6771 246.781 32.162C246.049 30.647 244.461 29.738 242.784 29.8745L243.114 33.9336ZM233.917 35.0771L229.847 34.9263C229.803 36.1455 230.306 37.3207 231.221 38.1286C232.134 38.9366 233.363 39.2921 234.567 39.0974L233.917 35.0771ZM234.265 25.6812L233.944 21.6213C231.884 21.7841 230.272 23.4648 230.196 25.5304L234.265 25.6812ZM254.399 24.0904L258.43 24.6754C258.608 23.4498 258.218 22.21 257.372 21.3062C256.525 20.4024 255.313 19.9329 254.078 20.0305L254.399 24.0904ZM250.227 30.5071C248.745 31.9896 245.92 35.0556 241.825 39.6133L247.883 45.0572C252.007 40.4676 254.685 37.568 255.986 36.2665L250.227 30.5071ZM241.877 39.5565C240.474 41.0597 239.087 42.5631 237.718 44.0667L243.738 49.5523C245.086 48.0731 246.451 46.5937 247.832 45.1141L241.877 39.5565ZM237.724 44.0599C235.905 46.0474 234.47 47.7599 233.561 49.1241L240.338 53.6422C240.887 52.819 241.972 51.4823 243.732 49.5591L237.724 44.0599ZM237.226 55.4464L248.958 54.6509L248.407 46.5245L236.674 47.3199L237.226 55.4464ZM244.635 50.1333L243.591 59.4296L251.685 60.3386L252.729 51.0422L244.635 50.1333ZM247.528 55.8131C238.859 56.0474 231.538 56.568 225.602 57.3914L226.722 65.4592C232.254 64.6917 239.25 64.1849 247.748 63.9552L247.528 55.8131ZM230.234 61.4473L230.284 52.2503L222.139 52.2062L222.089 61.4033L230.234 61.4473ZM229.304 54.8786C230.631 53.3296 233.342 50.3576 237.492 45.9087L231.536 40.3527C227.401 44.7859 224.576 47.879 223.12 49.5779L229.304 54.8786ZM237.488 45.9123L246.089 36.7153L240.139 31.152L231.54 40.3491L237.488 45.9123ZM242.784 29.8745C239.812 30.1165 236.638 30.512 233.268 31.0567L234.567 39.0974C237.759 38.5816 240.717 38.2148 243.445 37.9927L242.784 29.8745ZM237.987 35.2278L238.335 25.8319L230.196 25.5304L229.847 34.9263L237.987 35.2278ZM234.586 29.7411L254.72 28.1502L254.078 20.0305L233.944 21.6213L234.586 29.7411ZM250.369 23.5053C250.068 25.579 249.635 28.6926 249.071 32.838L257.142 33.9356C257.705 29.7954 258.134 26.7114 258.43 24.6754L250.369 23.5053Z" fill="black"/>
</g>
<path d="M37.5296 72.4976C53.7094 72.4976 66.8258 59.3813 66.8258 43.2014C66.8258 27.0216 53.7094 13.9053 37.5296 13.9053C21.3498 13.9053 8.2334 27.0216 8.2334 43.2014C8.2334 59.3813 21.3498 72.4976 37.5296 72.4976Z" fill="#67BBF2"/>
<path d="M7.56375 43.2007C7.35591 31.2764 14.9209 19.7991 25.9557 15.2587C45.9008 6.82212 68.049 21.5541 68.0673 43.2007C68.1766 59.8436 54.1799 73.7934 37.5296 73.5409C21.0827 73.5572 7.29652 59.6535 7.56375 43.2007ZM8.90158 43.2007C8.7308 54.5652 15.9958 65.4917 26.5229 69.7738C45.3826 77.7146 66.4442 63.6461 66.4249 43.2007C66.4338 22.7538 45.3885 8.69 26.5244 16.6291C15.9988 20.9127 8.73379 31.8362 8.903 43.2007H8.90158Z" fill="black"/>
<path d="M22.5435 64.4558C22.5435 64.4558 26.2228 56.5582 22.8033 45.7624C22.0862 43.4966 19.1611 41.262 19.1611 41.262C19.4759 39.8351 19.3393 35.7654 19.8174 31.2784C20.3074 26.677 20.7157 21.7936 26.6029 19.1522C37.519 14.2539 45.9258 17.3913 50.0668 23.9629C51.9213 26.9057 53.9347 30.1069 54.6281 34.5122C55.559 40.4246 53.755 43.4372 53.3542 48.778C52.9532 54.1188 56.0891 63.8663 56.0891 63.8663C56.0891 63.8663 53.4952 63.2486 52.5078 60.8968C52.5078 60.8968 52.4915 66.1232 50.6786 66.7899C49.7625 67.1269 51.1047 63.9911 47.4076 60.6117C46.9384 60.1826 46.9889 67.7401 42.6281 69.0437C41.9614 69.2427 43.8783 64.8656 41.1953 60.5998C40.9147 60.1529 41.1507 67.4743 36.986 69.02C36.0683 69.3602 37.4432 64.4885 35.1982 59.7089C34.5925 58.4202 34.7068 65.2041 29.3423 67.0274C28.7454 67.2308 31.084 63.0987 29.5636 59.8856C29.1908 59.0987 28.8805 63.8411 22.542 64.4558H22.5435Z" fill="#2944C2" stroke="black" stroke-width="0.835189" stroke-linejoin="round"/>
<path d="M21.7843 23.2677C21.7843 23.2677 23.8556 20.8832 27.284 24.2892C27.284 24.2892 30.2654 19.7636 36.3307 22.0012C42.396 24.2387 41.817 29.2038 41.5066 31.3315C40.9187 35.3494 37.1563 37.7948 37.1563 37.7948C37.1563 37.7948 32.0649 39.6493 26.7391 39.771C21.4131 39.8927 19.3537 39.2855 19.3537 39.2855C19.3537 39.2855 19.2023 31.3419 19.9789 28.0888C20.7553 24.8356 21.7843 23.2677 21.7843 23.2677Z" fill="#67BBF2" stroke="black" stroke-width="0.835189" stroke-linejoin="round"/>
<path d="M24.5479 43.0381C24.5479 43.0381 25.1418 44.1576 26.738 44.9832C29.3987 46.3595 34.294 47.2088 40.389 46.4278C48.778 45.3514 49.8426 40.125 47.6644 37.2534C43.1774 31.3366 41.9703 37.2267 34.9413 38.1057C30.4054 38.6728 31.0973 36.946 22.9428 38.5333C19.0973 39.2816 16.9607 40.3833 16.0386 41.5117C15.0038 42.7768 15.418 44.07 15.1121 44.8391C14.5315 46.2913 13.1626 48.4011 14.0921 49.0218C15.02 49.6424 14.9354 48.1086 17.9971 46.8926C21.0587 45.678 22.0312 45.629 23.3155 44.223C24.6014 42.8168 24.5494 43.0366 24.5494 43.0366L24.5479 43.0381Z" fill="#F5882D" stroke="black" stroke-width="0.835189" stroke-linejoin="round"/>
<path d="M28.4689 41.7933C28.4689 41.7933 29.0643 46.0516 28.3857 47.0137C27.7072 47.9758 22.4585 47.8719 21.8839 47.5364C21.3093 47.2008 21.8022 45.4028 21.8022 45.4028C21.8022 45.4028 22.8148 44.8935 24.1274 43.3656C25.7889 41.4324 28.4674 41.7933 28.4674 41.7933H28.4689Z" fill="white" stroke="black" stroke-width="0.835189" stroke-linecap="round" stroke-linejoin="round"/>
<path d="M23.9857 41.8919C24.5288 41.4913 24.717 40.8247 24.406 40.403C24.095 39.9814 23.4025 39.9642 22.8594 40.3648C22.3162 40.7654 22.1281 41.4319 22.4391 41.8536C22.7502 42.2753 23.4426 42.2924 23.9857 41.8919Z" fill="black"/>
<path d="M27.3373 32.7007C26.3099 35.749 23.1859 37.5085 20.4405 36.5092C17.7382 35.5248 16.6083 32.2939 17.8288 29.4016C19.0493 26.5092 21.9179 25.1536 24.4346 25.9866C26.9513 26.8195 28.3188 29.7891 27.3373 32.6992V32.7007Z" fill="white" stroke="black" stroke-width="0.835189" stroke-miterlimit="10"/>
<path d="M38.2831 31.0124C38.5049 27.6372 35.9763 24.723 32.6354 24.5034C29.2944 24.2838 26.4063 26.842 26.1844 30.2173C25.9626 33.5927 28.4912 36.5069 31.8321 36.7264C35.1731 36.946 38.0613 34.3878 38.2831 31.0124Z" fill="white" stroke="black" stroke-width="0.835189" stroke-miterlimit="10"/>
<path d="M19.7029 30.5119C19.7029 30.5119 19.7742 29.8214 19.1684 29.7561C18.5641 29.6908 17.8945 29.0879 17.8945 29.0879" stroke="#D88282" stroke-width="0.357938" stroke-linecap="round" stroke-linejoin="round"/>
<path d="M20.3254 29.8339C20.3254 29.8339 19.9363 29.5621 20.1115 29.1241C20.2867 28.6861 20.407 28.603 20.4159 28.4545C20.4248 28.306 19.5488 28.1368 19.2979 27.8027" stroke="#D88282" stroke-width="0.357938" stroke-linecap="round" stroke-linejoin="round"/>
<path d="M21.8349 28.318C21.8349 28.318 22.12 27.9453 21.9373 27.5266C21.7547 27.108 21.4607 26.4547 21.5423 26.1621" stroke="#D88282" stroke-width="0.357938" stroke-linecap="round" stroke-linejoin="round"/>
<path d="M22.6875 28.4353C22.6875 28.4353 23.7253 28.1116 23.905 27.6543C24.0847 27.197 24.4751 26.5392 24.9087 26.3818" stroke="#D88282" stroke-width="0.357938" stroke-linecap="round" stroke-linejoin="round"/>
<path d="M24.1781 29.1556C24.1781 29.1556 24.4335 28.676 24.3073 28.1326C24.181 27.5891 24.0059 27.4229 24.0059 27.4229" stroke="#D88282" stroke-width="0.357938" stroke-linecap="round" stroke-linejoin="round"/>
<path d="M25.1357 28.6538C25.1357 28.6538 25.6718 28.5454 25.8588 27.9604C26.0459 27.3754 26.0622 26.9434 26.0622 26.9434" stroke="#D88282" stroke-width="0.357938" stroke-linecap="round" stroke-linejoin="round"/>
<path d="M17.3066 32.0815C17.3066 32.0815 17.4418 31.8425 18.0862 31.6614C18.7305 31.4802 19.2592 31.7757 19.571 31.5723" stroke="#D88282" stroke-width="0.357938" stroke-linecap="round" stroke-linejoin="round"/>
<path d="M17.8086 34.2018C17.8086 34.2018 18.8241 34.4305 19.0513 33.9984C19.2785 33.5663 19.5636 32.5908 19.5636 32.5908" stroke="#D88282" stroke-width="0.357938" stroke-linecap="round" stroke-linejoin="round"/>
<path d="M19.0508 33.999C19.0508 33.999 19.1473 34.6003 19.3596 34.777C19.572 34.9537 19.9446 35.1393 20.05 35.4199C20.1555 35.7005 19.8051 36.3108 19.8051 36.3108" stroke="#D88282" stroke-width="0.357938" stroke-linecap="round" stroke-linejoin="round"/>
<path d="M24.7393 31.0053C24.7393 31.0053 25.158 31.2444 25.4965 30.8197C25.835 30.3951 26.1201 30.0283 26.1201 30.0283" stroke="#D88282" stroke-width="0.357938" stroke-linecap="round" stroke-linejoin="round"/>
<path d="M23.9393 31.5244C23.9393 31.5244 23.6869 31.8808 23.6884 32.2416C23.6899 32.6024 24.3625 32.5861 24.1502 33.1666C24.0447 33.4517 23.7627 33.5883 23.6959 33.8452C23.629 34.102 23.2949 35.036 23.2949 35.036C23.2949 35.036 23.5474 35.3388 23.5102 35.7219C23.4731 36.105 23.4063 36.5475 23.4063 36.5475" stroke="#D88282" stroke-width="0.357938" stroke-linecap="round" stroke-linejoin="round"/>
<path d="M23.2946 35.0348C23.2946 35.0348 22.2568 34.7438 22.1365 34.3013C22.0163 33.8589 22.5255 33.4951 22.5255 33.4951" stroke="#D88282" stroke-width="0.357938" stroke-linecap="round" stroke-linejoin="round"/>
<path d="M25.4028 32.8135C25.4028 32.8135 25.3701 33.5068 25.6181 33.6969C25.866 33.8869 26.6337 33.933 26.6337 33.933" stroke="#D88282" stroke-width="0.357938" stroke-linecap="round" stroke-linejoin="round"/>
<path d="M29.8503 32.088C29.8503 32.088 29.3588 31.993 29.1837 32.3924C29.0085 32.7918 28.9342 33.1585 28.9342 33.1585C28.9342 33.1585 28.3656 33.1229 27.782 33.6663C27.3203 34.0969 27.3708 34.2795 27.3708 34.2795" stroke="#D88282" stroke-width="0.357938" stroke-linecap="round" stroke-linejoin="round"/>
<path d="M28.9334 33.1582C28.9334 33.1582 28.8726 33.1419 29.0003 33.8457C29.128 34.5495 29.4219 34.4144 29.3819 35.0261C29.3418 35.6379 29.4709 35.9392 29.4709 35.9392" stroke="#D88282" stroke-width="0.357938" stroke-linecap="round" stroke-linejoin="round"/>
<path d="M26.2676 29.6016C26.2676 29.6016 27.3247 30.4286 28.2928 30.3558C28.2928 30.3558 28.2869 30.4791 28.2571 30.8874C28.2275 31.2957 28.0077 31.5674 27.4732 31.7545C26.9387 31.9416 26.4502 32.4553 26.4502 32.4553" stroke="#D88282" stroke-width="0.357938" stroke-linecap="round" stroke-linejoin="round"/>
<path d="M28.292 30.3577C28.292 30.3577 29.1294 29.9909 29.8554 30.1126C30.5815 30.2344 30.7983 30.8951 30.7983 30.8951" stroke="#D88282" stroke-width="0.357938" stroke-linecap="round" stroke-linejoin="round"/>
<path d="M29.491 30.0875C29.491 30.0875 29.3425 29.8782 29.6187 29.5114C29.8949 29.1447 30.1354 29.0615 30.1354 29.0615" stroke="#D88282" stroke-width="0.357938" stroke-linecap="round" stroke-linejoin="round"/>
<path d="M27.4746 27.0368C27.4746 27.0368 28.7292 26.8452 29.2177 27.1511C29.7062 27.457 29.58 28.0568 30.0997 28.2781C30.6194 28.4993 31.0722 28.4161 31.0722 28.4161" stroke="#D88282" stroke-width="0.357938" stroke-linecap="round" stroke-linejoin="round"/>
<path d="M29.5502 27.5322C29.5502 27.5322 29.2235 27.8217 29.1611 28.4008" stroke="#D88282" stroke-width="0.357938" stroke-linecap="round" stroke-linejoin="round"/>
<path d="M31.3256 24.5615C31.3256 24.5615 31.1994 25.4449 31.7309 25.9928C32.2625 26.5407 32.5936 26.3299 32.7198 26.5422C32.846 26.7545 32.6634 27.3959 32.6634 27.3959" stroke="#D88282" stroke-width="0.357938" stroke-linecap="round" stroke-linejoin="round"/>
<path d="M34.852 25.0869C34.852 25.0869 34.5892 25.6244 34.8238 26.1648C35.0584 26.7053 35.2588 26.7365 35.091 27.2101C34.9233 27.6838 34.3115 28.0119 34.3115 28.0119" stroke="#D88282" stroke-width="0.357938" stroke-linecap="round" stroke-linejoin="round"/>
<path d="M35.0898 27.21C35.0898 27.21 35.7045 27.8261 35.6511 28.1691" stroke="#D88282" stroke-width="0.357938" stroke-linecap="round" stroke-linejoin="round"/>
<path d="M35.5469 29.7762C35.5469 29.7762 35.9849 29.1985 36.7243 29.4346C37.4637 29.6693 38.2967 30.4606 38.2967 30.4606" stroke="#D88282" stroke-width="0.357938" stroke-linecap="round" stroke-linejoin="round"/>
<path d="M37.0292 34.3725C37.0292 34.3725 36.5199 34.1899 36.419 33.6494C36.318 33.1089 36.5333 33.0362 36.3016 32.7838C36.07 32.5314 35.0723 32.2314 35.0723 32.2314" stroke="#D88282" stroke-width="0.357938" stroke-linecap="round" stroke-linejoin="round"/>
<path d="M34.7734 34.2998C34.7734 34.2998 35.3094 34.8447 35.2916 35.2901C35.2753 35.7356 35.2501 35.9256 35.2501 35.9256" stroke="#D88282" stroke-width="0.357938" stroke-linecap="round" stroke-linejoin="round"/>
<path d="M32.4716 33.3896C32.4716 33.3896 32.73 34.7215 32.2965 35.1046C32.0559 35.3184 31.6283 35.1729 31.3981 35.5055C31.1679 35.8381 31.1932 36.3859 31.1932 36.3859" stroke="#D88282" stroke-width="0.357938" stroke-linecap="round" stroke-linejoin="round"/>
<path d="M32.2969 35.1064C32.2969 35.1064 32.9458 35.4405 33.1937 36.0226C33.2976 36.266 33.2471 36.6551 33.2471 36.6551" stroke="#D88282" stroke-width="0.357938" stroke-linecap="round" stroke-linejoin="round"/>
<path d="M26.9943 33.5233C25.7263 36.0549 22.9275 37.4149 20.4405 36.5092C17.7382 35.5248 16.6083 32.2939 17.8288 29.4016C19.0493 26.5092 21.9179 25.1536 24.4346 25.9866C25.3685 26.2954 26.1406 26.8894 26.6944 27.6599" stroke="black" stroke-width="0.835189" stroke-linejoin="round"/>
<path d="M38.2831 31.0124C38.5049 27.6372 35.9763 24.723 32.6354 24.5034C29.2944 24.2838 26.4063 26.842 26.1844 30.2173C25.9626 33.5927 28.4912 36.5069 31.8321 36.7264C35.1731 36.946 38.0613 34.3878 38.2831 31.0124Z" stroke="black" stroke-width="0.835189" stroke-linejoin="round"/>
<path d="M36.0751 30.8069C36.4931 29.5399 36.0549 28.2564 35.0963 27.9401C34.1377 27.6238 33.0217 28.3945 32.6037 29.6615C32.1856 30.9285 32.6238 32.212 33.5825 32.5283C34.5411 32.8446 35.657 32.0739 36.0751 30.8069Z" fill="black"/>
<path d="M22.1124 31.7848C22.4089 30.7591 21.9895 29.7369 21.1757 29.5017C20.3619 29.2666 19.4619 29.9074 19.1654 30.9331C18.869 31.9588 19.2884 32.9809 20.1022 33.2161C20.916 33.4513 21.816 32.8105 22.1124 31.7848Z" fill="black"/>
<path d="M42.0093 41.69C42.0093 41.69 41.3991 42.03 40.9373 42.2067C40.4755 42.3834 39.6055 42.5853 39.6055 42.5853L44.4814 48.2468L47.4955 46.863C47.4955 46.863 46.5601 45.7256 46.1815 45.2519C45.8029 44.7783 42.0108 41.6885 42.0108 41.6885L42.0093 41.69Z" fill="white" stroke="black" stroke-width="0.835189" stroke-linecap="round" stroke-linejoin="round"/>
<path d="M45.4444 46.8727C45.4444 46.8727 47.8705 45.3448 47.9893 47.4681C48.1125 49.6566 45.9463 50.2461 44.8222 49.235C43.5023 48.0487 45.4429 46.8712 45.4429 46.8712L45.4444 46.8727Z" fill="#FF431F" stroke="black" stroke-width="0.835189" stroke-linecap="round" stroke-linejoin="round"/>
<path d="M24.3711 43.1388C24.3711 43.1388 25.3674 41.9955 27.4313 41.7847C29.4951 41.5738 36.0489 43.3184 39.6035 42.585C43.6837 41.7431 43.8514 39.2012 43.8514 39.2012" stroke="black" stroke-width="0.835189" stroke-linecap="round" stroke-linejoin="round"/>
<path d="M16.8243 32.7363C16.8243 32.7363 18.8005 34.2686 21.5681 34.2404C24.5926 34.2092 26.6148 33.3792 26.6148 33.3792C26.6148 33.3792 26.989 37.6896 22.0432 37.7697C16.7604 37.8544 16.8243 32.7363 16.8243 32.7363Z" fill="#67BBF2" stroke="black" stroke-width="0.835189" stroke-linejoin="round"/>
<path d="M38.532 32.6045C38.532 32.6045 34.4875 33.7329 31.2581 33.4894C28.0287 33.2459 25.9678 32.8361 25.9678 32.8361C25.9678 32.8361 26.826 38.211 32.7191 38.0819C38.6107 37.9526 38.532 32.6045 38.532 32.6045Z" fill="#67BBF2" stroke="black" stroke-width="0.835189" stroke-linejoin="round"/>
<path d="M36.8134 6.5493C36.8134 6.5493 30.8 3.95984 28.0443 5.26496C26.9158 5.79948 26.8802 6.74529 26.8357 7.5441C26.7733 8.69628 27.1044 9.70002 27.5632 10.04C28.3412 10.6161 36.7881 9.23229 36.7881 9.23229C36.7881 9.23229 45.7948 11.0734 46.5223 9.34659C46.8386 8.59385 46.4778 7.78166 46.3873 7.00512C46.27 5.99845 46.2685 5.0764 45.247 4.70372C43.44 4.04299 36.8119 6.5493 36.8119 6.5493H36.8134Z" fill="#F5882D" stroke="black" stroke-width="0.835189" stroke-linejoin="round"/>
<path d="M34.2981 12.3146C34.2981 12.3146 33.7131 4.49278 36.7094 4.45715C39.7042 4.42151 38.7465 12.472 38.7465 12.472" fill="#2944C2"/>
<path d="M34.2981 12.3146C34.2981 12.3146 33.7131 4.49278 36.7094 4.45715C39.7042 4.42151 38.7465 12.472 38.7465 12.472" stroke="black" stroke-width="0.835189" stroke-linejoin="round"/>
<path d="M43.9747 17.7783C42.9162 15.0701 39.6927 12.6098 39.6927 12.6098H39.6853C38.8211 12.4658 37.8976 12.3663 36.9117 12.3158C35.7847 12.2579 34.7335 12.2653 33.7521 12.3277C33.5724 12.4109 31.2458 13.5526 29.4819 17.9402C27.9866 21.6595 28.0965 24.2505 28.0965 24.252C30.2658 24.0188 32.784 23.903 35.5338 24.0501C38.9993 24.2356 42.3029 24.6395 45.0527 25.0641H45.0409C45.0409 25.0641 45.0319 20.4851 43.9733 17.7783H43.9747Z" fill="#FFD957" stroke="black" stroke-width="0.835189" stroke-linejoin="round"/>
<path d="M33.7527 12.3279C33.7527 12.3279 33.7563 12.3279 33.7563 12.3262H33.751L33.7527 12.3279Z" fill="#2944C2" stroke="black" stroke-width="0.835189" stroke-linejoin="round"/>
<path d="M33.7568 12.3253L33.7663 12.3203C33.7663 12.3203 33.7631 12.3203 33.7568 12.3253Z" fill="#2944C2" stroke="black" stroke-width="0.835189" stroke-linejoin="round"/>
<path d="M28.0984 24.2525C23.1971 24.7781 20.0731 25.8961 20.0731 25.8961C20.0731 25.8961 19.6025 13.2399 33.7524 12.3282L33.7643 12.3223C33.7643 12.3223 31.3174 13.3735 29.4822 17.9407C27.987 21.6601 28.0969 24.2525 28.0969 24.2525H28.0984Z" fill="#CD4434" stroke="black" stroke-width="0.835189" stroke-linejoin="round"/>
<path d="M45.0426 25.0613C45.0426 25.0613 45.0337 20.4852 43.9751 17.7769C42.9164 15.0687 39.6929 12.6084 39.6929 12.6084H39.6855C52.6506 14.7405 52.3819 26.4658 52.3819 26.4658C52.3819 26.4658 49.4153 25.7383 45.0545 25.0642H45.0426V25.0613Z" fill="#50B861" stroke="black" stroke-width="0.835189" stroke-linejoin="round"/>
</svg>
