<svg width="112" height="113" viewBox="0 0 112 113" fill="none" xmlns="http://www.w3.org/2000/svg">
<g clip-path="url(#clip0_1366_1445)">
<path d="M55.2915 105.587C79.1289 105.587 98.453 86.2627 98.453 62.4252C98.453 38.5878 79.1289 19.2637 55.2915 19.2637C31.454 19.2637 12.1299 38.5878 12.1299 62.4252C12.1299 86.2627 31.454 105.587 55.2915 105.587Z" fill="#67BBF2"/>
<path d="M11.1429 62.4266C10.8367 44.8588 21.982 27.9494 38.2395 21.2601C67.6242 8.83063 100.255 30.5351 100.282 62.4266C100.443 86.9463 79.8217 107.498 55.291 107.126C31.0601 107.15 10.7492 86.6663 11.1429 62.4266ZM13.1139 62.4266C12.8623 79.1697 23.5657 95.2676 39.0751 101.576C66.8607 113.275 97.8904 92.5485 97.862 62.4266C97.8751 32.3026 66.8695 11.5826 39.0773 23.2791C23.5701 29.5901 12.8667 45.6835 13.116 62.4266H13.1139Z" fill="black"/>
<path d="M33.2127 93.7395C33.2127 93.7395 38.6333 82.1041 33.5955 66.1988C32.5389 62.8607 28.2295 59.5685 28.2295 59.5685C28.6933 57.4663 28.492 51.4704 29.1964 44.8598C29.9183 38.0807 30.5198 30.886 39.1933 26.9945C55.2758 19.7779 67.6614 24.4001 73.7623 34.082C76.4945 38.4176 79.4608 43.1338 80.4823 49.6241C81.8539 58.3348 79.1961 62.7732 78.6055 70.6416C78.0148 78.5101 82.6348 92.871 82.6348 92.871C82.6348 92.871 78.8133 91.961 77.3586 88.496C77.3586 88.496 77.3345 96.196 74.6636 97.1782C73.3139 97.6748 75.2914 93.0548 69.8445 88.076C69.1533 87.4438 69.2277 98.5782 62.803 100.499C61.8208 100.792 64.6449 94.3432 60.692 88.0585C60.2786 87.4001 60.6264 98.1866 54.4905 100.464C53.1386 100.965 55.1642 93.7876 51.8567 86.746C50.9642 84.8473 51.1327 94.842 43.2292 97.5282C42.3498 97.8279 45.7952 91.7401 43.5552 87.0063C43.0061 85.847 42.5489 92.8338 33.2105 93.7395H33.2127Z" fill="#2944C2" stroke="black" stroke-width="1.23047" stroke-linejoin="round"/>
<path d="M32.0947 33.0586C32.0947 33.0586 35.1462 29.5455 40.1972 34.5636C40.1972 34.5636 44.5897 27.8961 53.5256 31.1927C62.4615 34.4892 61.6084 41.8042 61.1512 44.9389C60.285 50.8583 54.7419 54.4611 54.7419 54.4611C54.7419 54.4611 47.2409 57.1933 39.3944 57.3727C31.5478 57.552 28.5137 56.6574 28.5137 56.6574C28.5137 56.6574 28.2906 44.9542 29.4347 40.1614C30.5787 35.3686 32.0947 33.0586 32.0947 33.0586Z" fill="#67BBF2" stroke="black" stroke-width="1.23047" stroke-linejoin="round"/>
<path d="M36.1659 62.1846C36.1659 62.1846 37.0409 63.8339 39.3925 65.0502C43.3125 67.078 50.5247 68.3292 59.5043 67.1786C71.8637 65.5927 73.4322 57.8927 70.2231 53.6621C63.6125 44.9449 61.834 53.6227 51.4784 54.9177C44.7956 55.7533 45.815 53.2092 33.8012 55.5477C28.1356 56.6502 24.9878 58.2733 23.6293 59.9358C22.1047 61.7996 22.715 63.7049 22.2643 64.838C21.409 66.9774 19.3922 70.0858 20.7615 71.0002C22.1287 71.9146 22.004 69.6549 26.5147 67.8633C31.0253 66.0739 32.4581 66.0017 34.3503 63.9302C36.2447 61.8586 36.1681 62.1824 36.1681 62.1824L36.1659 62.1846Z" fill="#F5882D" stroke="black" stroke-width="1.23047" stroke-linejoin="round"/>
<path d="M41.9428 60.3518C41.9428 60.3518 42.82 66.6255 41.8203 68.043C40.8206 69.4605 33.0878 69.3074 32.2413 68.813C31.3947 68.3186 32.1209 65.6696 32.1209 65.6696C32.1209 65.6696 33.6128 64.9193 35.5466 62.6683C37.9944 59.8202 41.9406 60.3518 41.9406 60.3518H41.9428Z" fill="white" stroke="black" stroke-width="1.23047" stroke-linecap="round" stroke-linejoin="round"/>
<path d="M35.3375 60.4969C36.1377 59.9067 36.4149 58.9246 35.9567 58.3033C35.4985 57.6821 34.4783 57.6568 33.6781 58.247C32.8779 58.8372 32.6007 59.8192 33.0589 60.4405C33.5172 61.0618 34.5373 61.087 35.3375 60.4969Z" fill="black"/>
<path d="M40.2764 46.9561C38.7627 51.4471 34.1602 54.0393 30.1155 52.5671C26.1342 51.1168 24.4695 46.3567 26.2677 42.0954C28.0658 37.8342 32.2921 35.8371 35.9999 37.0643C39.7077 38.2914 41.7224 42.6663 40.2764 46.9538V46.9561Z" fill="white" stroke="black" stroke-width="1.23047" stroke-miterlimit="10"/>
<path d="M56.4013 44.4684C56.7281 39.4957 53.0028 35.2022 48.0807 34.8787C43.1585 34.5552 38.9034 38.3242 38.5766 43.297C38.2498 48.2698 41.9751 52.5633 46.8972 52.8867C51.8194 53.2102 56.0745 49.4412 56.4013 44.4684Z" fill="white" stroke="black" stroke-width="1.23047" stroke-miterlimit="10"/>
<path d="M29.0286 43.7307C29.0286 43.7307 29.1336 42.7135 28.2411 42.6172C27.3508 42.521 26.3643 41.6328 26.3643 41.6328" stroke="#D88282" stroke-width="0.527344" stroke-linecap="round" stroke-linejoin="round"/>
<path d="M29.9445 42.7327C29.9445 42.7327 29.3713 42.3323 29.6295 41.687C29.8876 41.0417 30.0648 40.9192 30.0779 40.7005C30.091 40.4817 28.8004 40.2323 28.4307 39.7402" stroke="#D88282" stroke-width="0.527344" stroke-linecap="round" stroke-linejoin="round"/>
<path d="M32.1694 40.4986C32.1694 40.4986 32.5894 39.9495 32.3203 39.3326C32.0512 38.7158 31.6181 37.7533 31.7384 37.3223" stroke="#D88282" stroke-width="0.527344" stroke-linecap="round" stroke-linejoin="round"/>
<path d="M33.4248 40.6719C33.4248 40.6719 34.9538 40.195 35.2185 39.5212C35.4832 38.8475 36.0585 37.8784 36.6973 37.6465" stroke="#D88282" stroke-width="0.527344" stroke-linecap="round" stroke-linejoin="round"/>
<path d="M35.6209 41.7325C35.6209 41.7325 35.9972 41.0259 35.8113 40.2253C35.6253 39.4247 35.3672 39.1797 35.3672 39.1797" stroke="#D88282" stroke-width="0.527344" stroke-linecap="round" stroke-linejoin="round"/>
<path d="M37.0322 40.9927C37.0322 40.9927 37.8219 40.833 38.0975 39.9711C38.3731 39.1092 38.3972 38.4727 38.3972 38.4727" stroke="#D88282" stroke-width="0.527344" stroke-linecap="round" stroke-linejoin="round"/>
<path d="M25.4971 46.0433C25.4971 46.0433 25.6962 45.6911 26.6456 45.4243C27.5949 45.1574 28.3737 45.5927 28.8331 45.293" stroke="#D88282" stroke-width="0.527344" stroke-linecap="round" stroke-linejoin="round"/>
<path d="M26.2373 49.1684C26.2373 49.1684 27.7335 49.5053 28.0682 48.8687C28.4029 48.2321 28.8229 46.7949 28.8229 46.7949" stroke="#D88282" stroke-width="0.527344" stroke-linecap="round" stroke-linejoin="round"/>
<path d="M28.0674 48.8672C28.0674 48.8672 28.2096 49.7531 28.5224 50.0134C28.8353 50.2737 29.3843 50.5472 29.5396 50.9606C29.6949 51.374 29.1787 52.2731 29.1787 52.2731" stroke="#D88282" stroke-width="0.527344" stroke-linecap="round" stroke-linejoin="round"/>
<path d="M36.4482 44.457C36.4482 44.457 37.0651 44.8092 37.5638 44.1835C38.0626 43.5579 38.4826 43.0176 38.4826 43.0176" stroke="#D88282" stroke-width="0.527344" stroke-linecap="round" stroke-linejoin="round"/>
<path d="M35.2687 45.2227C35.2687 45.2227 34.8968 45.7477 34.899 46.2793C34.9012 46.8109 35.8922 46.7868 35.5793 47.6421C35.424 48.0621 35.0084 48.2634 34.91 48.6418C34.8115 49.0202 34.3193 50.3962 34.3193 50.3962C34.3193 50.3962 34.6912 50.8424 34.6365 51.4068C34.5818 51.9712 34.4834 52.6231 34.4834 52.6231" stroke="#D88282" stroke-width="0.527344" stroke-linecap="round" stroke-linejoin="round"/>
<path d="M34.3192 50.3954C34.3192 50.3954 32.7902 49.9667 32.613 49.3148C32.4358 48.6629 33.1861 48.127 33.1861 48.127" stroke="#D88282" stroke-width="0.527344" stroke-linecap="round" stroke-linejoin="round"/>
<path d="M37.4259 47.123C37.4259 47.123 37.3778 48.1445 37.7431 48.4245C38.1084 48.7045 39.2394 48.7724 39.2394 48.7724" stroke="#D88282" stroke-width="0.527344" stroke-linecap="round" stroke-linejoin="round"/>
<path d="M43.9778 46.0536C43.9778 46.0536 43.2537 45.9136 42.9956 46.502C42.7375 47.0905 42.6281 47.6308 42.6281 47.6308C42.6281 47.6308 41.7903 47.5783 40.9306 48.3789C40.2503 49.0133 40.3247 49.2823 40.3247 49.2823" stroke="#D88282" stroke-width="0.527344" stroke-linecap="round" stroke-linejoin="round"/>
<path d="M42.6278 47.629C42.6278 47.629 42.5382 47.605 42.7263 48.6419C42.9144 49.6787 43.3475 49.4797 43.2885 50.3809C43.2294 51.2822 43.4197 51.7262 43.4197 51.7262" stroke="#D88282" stroke-width="0.527344" stroke-linecap="round" stroke-linejoin="round"/>
<path d="M38.6992 42.3906C38.6992 42.3906 40.2567 43.609 41.6829 43.5018C41.6829 43.5018 41.6742 43.6834 41.6304 44.285C41.5867 44.8865 41.2629 45.2868 40.4754 45.5625C39.6879 45.8381 38.9683 46.595 38.9683 46.595" stroke="#D88282" stroke-width="0.527344" stroke-linecap="round" stroke-linejoin="round"/>
<path d="M41.6826 43.5049C41.6826 43.5049 42.9164 42.9646 43.986 43.1439C45.0557 43.3233 45.3751 44.2967 45.3751 44.2967" stroke="#D88282" stroke-width="0.527344" stroke-linecap="round" stroke-linejoin="round"/>
<path d="M43.4484 43.1054C43.4484 43.1054 43.2296 42.7969 43.6365 42.2565C44.0434 41.7162 44.3977 41.5938 44.3977 41.5938" stroke="#D88282" stroke-width="0.527344" stroke-linecap="round" stroke-linejoin="round"/>
<path d="M40.4775 38.6107C40.4775 38.6107 42.3259 38.3285 43.0456 38.7792C43.7653 39.2298 43.5794 40.1135 44.345 40.4395C45.1106 40.7654 45.7778 40.6429 45.7778 40.6429" stroke="#D88282" stroke-width="0.527344" stroke-linecap="round" stroke-linejoin="round"/>
<path d="M43.5361 39.3418C43.5361 39.3418 43.0548 39.7683 42.9629 40.6215" stroke="#D88282" stroke-width="0.527344" stroke-linecap="round" stroke-linejoin="round"/>
<path d="M46.1521 34.9648C46.1521 34.9648 45.9662 36.2663 46.7493 37.0735C47.5325 37.8807 48.0203 37.5701 48.2062 37.8829C48.3921 38.1957 48.1231 39.1407 48.1231 39.1407" stroke="#D88282" stroke-width="0.527344" stroke-linecap="round" stroke-linejoin="round"/>
<path d="M51.3471 35.7383C51.3471 35.7383 50.9599 36.5302 51.3055 37.3264C51.6511 38.1227 51.9464 38.1686 51.6992 38.8664C51.4521 39.5642 50.5508 40.0477 50.5508 40.0477" stroke="#D88282" stroke-width="0.527344" stroke-linecap="round" stroke-linejoin="round"/>
<path d="M51.6973 38.8672C51.6973 38.8672 52.6029 39.775 52.5242 40.2803" stroke="#D88282" stroke-width="0.527344" stroke-linecap="round" stroke-linejoin="round"/>
<path d="M52.3711 42.6473C52.3711 42.6473 53.0164 41.7963 54.1058 42.1441C55.1951 42.4898 56.4223 43.6557 56.4223 43.6557" stroke="#D88282" stroke-width="0.527344" stroke-linecap="round" stroke-linejoin="round"/>
<path d="M54.554 49.42C54.554 49.42 53.8037 49.1509 53.655 48.3547C53.5062 47.5584 53.8234 47.4512 53.4821 47.0794C53.1409 46.7075 51.6709 46.2656 51.6709 46.2656" stroke="#D88282" stroke-width="0.527344" stroke-linecap="round" stroke-linejoin="round"/>
<path d="M51.2314 49.3125C51.2314 49.3125 52.0211 50.1153 51.9948 50.7715C51.9708 51.4278 51.9336 51.7078 51.9336 51.7078" stroke="#D88282" stroke-width="0.527344" stroke-linecap="round" stroke-linejoin="round"/>
<path d="M47.8408 47.9707C47.8408 47.9707 48.2214 49.9329 47.5827 50.4973C47.2283 50.8123 46.5983 50.5979 46.2592 51.0879C45.9201 51.5779 45.9573 52.3851 45.9573 52.3851" stroke="#D88282" stroke-width="0.527344" stroke-linecap="round" stroke-linejoin="round"/>
<path d="M47.582 50.5C47.582 50.5 48.538 50.9922 48.9033 51.8497C49.0564 52.2084 48.982 52.7816 48.982 52.7816" stroke="#D88282" stroke-width="0.527344" stroke-linecap="round" stroke-linejoin="round"/>
<path d="M39.7711 48.1679C37.903 51.8976 33.7795 53.9014 30.1155 52.5671C26.1342 51.1168 24.4695 46.3567 26.2677 42.0954C28.0658 37.8342 32.2921 35.8371 35.9999 37.0643C37.3758 37.5193 38.5133 38.3942 39.3292 39.5295" stroke="black" stroke-width="1.23047" stroke-linejoin="round"/>
<path d="M56.4013 44.4684C56.7281 39.4957 53.0028 35.2022 48.0807 34.8787C43.1585 34.5552 38.9034 38.3242 38.5766 43.297C38.2498 48.2698 41.9751 52.5633 46.8972 52.8867C51.8194 53.2102 56.0745 49.4412 56.4013 44.4684Z" stroke="black" stroke-width="1.23047" stroke-linejoin="round"/>
<path d="M53.1495 44.1641C53.7654 42.2975 53.1197 40.4065 51.7074 39.9405C50.2951 39.4745 48.651 40.61 48.0351 42.4766C47.4192 44.3433 48.0648 46.2342 49.4772 46.7002C50.8895 47.1662 52.5336 46.0307 53.1495 44.1641Z" fill="black"/>
<path d="M32.5785 45.6051C33.0153 44.0939 32.3974 42.5881 31.1985 42.2416C29.9995 41.8951 28.6736 42.8391 28.2368 44.3503C27.8001 45.8614 28.418 47.3673 29.6169 47.7138C30.8158 48.0603 32.1418 47.1162 32.5785 45.6051Z" fill="black"/>
<path d="M61.8911 60.1995C61.8911 60.1995 60.9921 60.7005 60.3118 60.9608C59.6314 61.2211 58.3496 61.5186 58.3496 61.5186L65.5333 69.8595L69.9739 67.8208C69.9739 67.8208 68.5958 66.1451 68.038 65.4473C67.4802 64.7495 61.8933 60.1973 61.8933 60.1973L61.8911 60.1995Z" fill="white" stroke="black" stroke-width="1.23047" stroke-linecap="round" stroke-linejoin="round"/>
<path d="M66.9526 67.8364C66.9526 67.8364 70.527 65.5854 70.702 68.7136C70.8835 71.9379 67.692 72.8064 66.036 71.3167C64.0914 69.5689 66.9504 67.8342 66.9504 67.8342L66.9526 67.8364Z" fill="#FF431F" stroke="black" stroke-width="1.23047" stroke-linecap="round" stroke-linejoin="round"/>
<path d="M35.9053 62.3344C35.9053 62.3344 37.3732 60.65 40.4138 60.3394C43.4544 60.0288 53.11 62.5991 58.3469 61.5185C64.3582 60.2782 64.6053 56.5332 64.6053 56.5332" stroke="black" stroke-width="1.23047" stroke-linecap="round" stroke-linejoin="round"/>
<path d="M24.7862 47.0078C24.7862 47.0078 27.6977 49.2653 31.7752 49.2237C36.2312 49.1778 39.2105 47.9549 39.2105 47.9549C39.2105 47.9549 39.7618 54.3053 32.4752 54.4234C24.6921 54.5481 24.7862 47.0078 24.7862 47.0078Z" fill="#67BBF2" stroke="black" stroke-width="1.23047" stroke-linejoin="round"/>
<path d="M56.7674 46.8145C56.7674 46.8145 50.8087 48.477 46.0509 48.1182C41.2931 47.7595 38.2568 47.1557 38.2568 47.1557C38.2568 47.1557 39.5212 55.0745 48.2034 54.8842C56.8834 54.6938 56.7674 46.8145 56.7674 46.8145Z" fill="#67BBF2" stroke="black" stroke-width="1.23047" stroke-linejoin="round"/>
<path d="M54.2365 8.42743C54.2365 8.42743 45.3771 4.61243 41.3171 6.53524C39.6546 7.32274 39.6021 8.71618 39.5365 9.89305C39.4446 11.5905 39.9324 13.0693 40.6084 13.5702C41.7546 14.419 54.1993 12.3802 54.1993 12.3802C54.1993 12.3802 67.4687 15.0927 68.5405 12.5486C69.0065 11.4396 68.4749 10.2431 68.3415 9.09899C68.1687 7.61587 68.1665 6.25743 66.6615 5.70837C63.9993 4.73493 54.2343 8.42743 54.2343 8.42743H54.2365Z" fill="#F5882D" stroke="black" stroke-width="1.23047" stroke-linejoin="round"/>
<path d="M50.5308 16.9221C50.5308 16.9221 49.669 5.39838 54.0833 5.34588C58.4955 5.29338 57.0846 17.154 57.0846 17.154" fill="#2944C2"/>
<path d="M50.5308 16.9221C50.5308 16.9221 49.669 5.39838 54.0833 5.34588C58.4955 5.29338 57.0846 17.154 57.0846 17.154" stroke="black" stroke-width="1.23047" stroke-linejoin="round"/>
<path d="M64.7874 24.9712C63.2278 20.9812 58.4787 17.3565 58.4787 17.3565H58.4678C57.1946 17.1443 55.834 16.9977 54.3815 16.9234C52.7212 16.838 51.1724 16.849 49.7265 16.9409C49.4618 17.0634 46.034 18.7455 43.4353 25.2096C41.2324 30.6893 41.3943 34.5065 41.3943 34.5087C44.5903 34.1652 48.3003 33.9946 52.3515 34.2112C57.4571 34.4846 62.3243 35.0796 66.3756 35.7052H66.3581C66.3581 35.7052 66.3449 28.959 64.7853 24.9712H64.7874Z" fill="#FFD957" stroke="black" stroke-width="1.23047" stroke-linejoin="round"/>
<path d="M49.7262 16.942C49.7262 16.942 49.7314 16.942 49.7314 16.9395H49.7236L49.7262 16.942Z" fill="#2944C2" stroke="black" stroke-width="1.23047" stroke-linejoin="round"/>
<path d="M49.7324 16.937L49.7463 16.9297C49.7463 16.9297 49.7416 16.9297 49.7324 16.937Z" fill="#2944C2" stroke="black" stroke-width="1.23047" stroke-linejoin="round"/>
<path d="M41.3965 34.5082C34.1755 35.2826 29.573 36.9297 29.573 36.9297C29.573 36.9297 28.8796 18.2835 49.7265 16.9404L49.744 16.9316C49.744 16.9316 46.139 18.4804 43.4352 25.2091C41.2324 30.6888 41.3943 34.5082 41.3943 34.5082H41.3965Z" fill="#CD4434" stroke="black" stroke-width="1.23047" stroke-linejoin="round"/>
<path d="M66.3603 35.7021C66.3603 35.7021 66.3471 28.9602 64.7875 24.9702C63.2278 20.9802 58.4787 17.3555 58.4787 17.3555H58.4678C77.569 20.4967 77.1731 37.7714 77.1731 37.7714C77.1731 37.7714 72.8025 36.6996 66.3778 35.7064H66.3603V35.7021Z" fill="#50B861" stroke="black" stroke-width="1.23047" stroke-linejoin="round"/>
</g>
<defs>
<clipPath id="clip0_1366_1445">
<rect width="112" height="112" fill="white" transform="translate(0 0.810547)"/>
</clipPath>
</defs>
</svg>
