<svg width="300" height="201" viewBox="0 0 300 201" fill="none" xmlns="http://www.w3.org/2000/svg">
<path d="M95.2844 23.1973L151.071 81.2246L181.615 22.3496L198.975 66.955L250.307 50.5996L222.627 89.2207L259.618 95.7015L229.187 119.526L257.621 156.529L196.094 140.217L189.968 164.33L158.267 142.561L161.529 190.506L121.164 148.377L88.3982 183.982L82.963 155.877L37.4953 175.115L78.647 124.885L17.1416 101.08L90.9738 94.6074L95.2844 23.1973Z" fill="black"/>
<path d="M95.1989 179.272C87.3541 179.272 80.3232 174.322 73.7047 164.135C70.2455 158.799 67.3485 152.568 65.0942 145.623C62.8826 138.807 61.2654 131.17 60.2962 122.924C58.6255 108.932 59.2734 95.5058 62.2239 83.0215C66.0527 66.9434 72.8586 58.2754 83.0221 56.5176C84.0448 56.3418 85.0783 56.252 86.0903 56.252C93.8817 56.252 100.859 61.2168 107.424 71.4278C111.044 77.0332 114.043 83.4473 116.329 90.4866C118.514 97.2133 120.131 104.744 121.143 112.873C122.782 126.787 122.08 140.174 119.06 152.666C115.199 168.642 108.414 177.256 98.3261 179.002C97.2869 179.182 96.2377 179.272 95.2042 179.272H95.1989ZM91.9646 95.7283C91.8414 95.7283 91.7182 95.74 91.5897 95.7633C90.2136 96.0016 86.8347 97.8066 85.1051 109.427C83.9592 116.666 83.7717 123.666 84.5482 130.248C84.9927 133.697 85.662 136.818 86.5348 139.502C87.7343 143.193 89.3997 146.1 91.4827 148.147C93.1694 149.763 94.8937 150.592 96.6019 150.592C96.9394 150.592 97.2927 150.561 97.6511 150.498C101.598 149.814 103.494 145.166 104.383 141.385C105.523 136.6 105.699 131.057 104.907 124.912C103.992 117.654 102.005 110.588 99.0011 103.904C95.4881 96.3225 92.7303 95.7325 91.9646 95.7325V95.7283Z" fill="black"/>
<path d="M86.0844 57.8145C92.8957 57.8145 99.3587 62.5723 105.475 72.0918C109.051 77.627 111.97 83.8766 114.235 90.8458C116.404 97.5291 117.994 104.92 119 113.013C120.634 126.85 119.943 139.978 116.939 152.397C113.276 167.549 106.904 175.912 97.8221 177.482C96.9437 177.635 96.0657 177.709 95.1982 177.709C88.3281 177.709 81.8112 172.963 75.6372 163.467C72.2315 158.209 69.4041 152.142 67.1712 145.267C64.9703 138.49 63.3907 130.998 62.4268 122.795C60.7614 108.865 61.3987 95.6975 64.3277 83.291C67.9637 68.041 74.352 59.627 83.5087 58.045C84.3708 57.8965 85.233 57.8223 86.0844 57.8223M96.5962 152.151C97.1046 152.151 97.6187 152.103 98.1379 152.013C102.24 151.307 105.025 147.85 106.486 141.647C107.665 136.705 107.846 131.076 107.032 124.763C106.095 117.362 104.098 110.248 101.03 103.416C98.1754 97.2516 95.1501 94.1658 91.9586 94.1658C91.6694 94.1658 91.3803 94.1891 91.0912 94.24C87.0643 94.9358 84.3547 99.9433 82.9732 109.256C81.8059 116.619 81.6184 123.658 82.411 130.377C82.8662 133.927 83.5462 137.088 84.4458 139.857C85.7202 143.772 87.4873 146.846 89.7577 149.072C91.8943 151.123 94.1702 152.147 96.5962 152.147M86.0897 54.6895C84.9063 54.6895 83.7122 54.795 82.5287 54.998C71.4389 56.916 64.1082 65.9941 60.1135 82.752C57.1309 95.3733 56.4776 108.936 58.1643 123.064C59.1442 131.385 60.7722 139.1 63.0105 145.987C65.3023 153.037 68.2475 159.369 71.7709 164.802C78.7857 175.592 86.4485 180.834 95.2037 180.834C96.4029 180.834 97.6187 180.728 98.8179 180.522C109.828 178.619 117.137 169.596 121.164 152.939C124.221 140.311 124.928 126.787 123.274 112.748C122.25 104.529 120.618 96.9241 118.411 90.1266C116.093 82.9825 113.046 76.4668 109.356 70.7598C102.406 59.9473 94.7967 54.6895 86.0897 54.6895ZM86.6787 130.103C85.9184 123.627 86.1058 116.737 87.2303 109.619C87.2303 109.612 87.2303 109.603 87.2303 109.596C88.7082 99.6425 91.316 97.6775 91.9426 97.3458C92.4994 97.6308 94.4486 98.9666 96.9654 104.404C99.9162 110.975 101.87 117.92 102.77 125.052C103.546 131.064 103.375 136.467 102.266 141.115C101.19 145.674 99.2787 148.612 97.1471 148.978C96.9496 149.013 96.7671 149.029 96.5904 149.029C95.3482 149.029 94.0523 148.041 93.1795 147.205C91.2732 145.334 89.7363 142.619 88.6065 139.147C87.7604 136.537 87.1072 133.494 86.6681 130.107L86.6787 130.103Z" fill="black"/>
<path d="M159.141 172.076C158.814 172.076 158.488 172.022 158.182 171.912C157.572 171.689 157.143 171.272 157.031 170.783L144.323 117.662L149.668 161.795C149.743 162.432 149.283 163.037 148.501 163.326L126.953 171.287C126.648 171.401 126.316 171.455 125.983 171.455C125.598 171.455 125.218 171.381 124.875 171.228C124.243 170.951 123.853 170.455 123.842 169.916C123.129 135.783 119.853 100.982 114.112 66.4863C114.01 65.8613 114.428 65.252 115.183 64.9395L139.623 54.8145C139.949 54.6777 140.313 54.6113 140.678 54.6113C140.988 54.6113 141.298 54.6582 141.582 54.7597C142.208 54.9746 142.658 55.3965 142.782 55.8965L148.468 78.6543L146.348 59.1816C146.283 58.5879 146.691 58.0175 147.392 57.7129L170.777 47.627C171.114 47.4824 171.488 47.4082 171.869 47.4082C172.179 47.4082 172.49 47.455 172.774 47.5566C173.417 47.7754 173.867 48.209 173.978 48.7207C181.042 80.1816 188.721 108.74 196.796 133.603L201.588 148.353C201.803 149.017 201.406 149.705 200.603 150.057L179.869 159.084C179.532 159.232 179.152 159.307 178.772 159.307C178.472 159.307 178.172 159.26 177.893 159.17C177.256 158.959 176.795 158.537 176.667 158.033L167.885 124.112L172.662 166.151C172.731 166.783 172.276 167.385 171.499 167.67L160.11 171.908C159.804 172.022 159.473 172.08 159.135 172.08L159.141 172.076Z" fill="black"/>
<path d="M171.874 48.9707C178.98 80.6192 186.6 108.947 194.723 133.963C196.335 138.927 197.93 143.846 199.515 148.713L178.781 157.74L162.364 94.3258L170.535 166.276L159.145 170.513L137.742 81.0371L147.541 161.932L125.994 169.892C125.276 135.529 122.026 100.998 116.248 66.2989L140.687 56.1739L153.973 109.373L148.49 59.0566L171.874 48.9707ZM171.874 45.8457C171.119 45.8457 170.364 45.9903 169.695 46.2793L146.31 56.3653C145.903 56.541 145.55 56.7598 145.25 57.0137L144.902 55.6153C144.655 54.6192 143.755 53.7715 142.503 53.3457C141.925 53.1505 141.309 53.0528 140.687 53.0528C139.954 53.0528 139.225 53.1895 138.572 53.459L114.133 63.584C112.628 64.2051 111.788 65.4278 111.996 66.6778C117.731 101.119 120.998 135.862 121.715 169.939C121.737 171.017 122.519 172.01 123.782 172.568C124.462 172.869 125.228 173.017 126 173.017C126.663 173.017 127.327 172.904 127.932 172.682L149.48 164.721C151.044 164.142 151.965 162.932 151.81 161.658L150.915 154.283L154.926 171.052C155.161 172.029 156.013 172.869 157.234 173.311C157.839 173.529 158.492 173.638 159.145 173.638C159.799 173.638 160.479 173.526 161.09 173.299L172.479 169.061C174.026 168.487 174.948 167.283 174.803 166.017L173.427 153.892L174.573 158.318C174.835 159.322 175.745 160.17 177.025 160.588C177.588 160.772 178.187 160.862 178.781 160.862C179.542 160.862 180.302 160.713 180.977 160.42L201.711 151.392C203.317 150.693 204.115 149.314 203.681 147.99L199.226 134.267L198.895 133.237C190.83 108.401 183.162 79.8809 176.105 48.459C175.874 47.4395 174.975 46.5684 173.69 46.1348C173.111 45.9395 172.495 45.8418 171.874 45.8418V45.8457Z" fill="black"/>
<path d="M220.073 157.686C212.33 157.686 205.443 152.908 199.012 143.088C195.515 137.865 192.608 131.737 190.38 124.881C188.292 118.443 186.75 111.151 185.802 103.205C184.11 89.6075 184.805 76.5723 187.885 64.4629C191.756 49.002 198.509 40.6465 208.517 38.9161C209.555 38.7363 210.6 38.6465 211.634 38.6465C219.473 38.6465 226.471 43.6075 233.031 53.8067C233.24 54.1348 233.288 54.5059 233.165 54.8536L226.509 74.0059C226.3 74.6036 225.631 75.0567 224.795 75.1622C224.672 75.1777 224.555 75.1856 224.431 75.1856C223.725 75.1856 223.055 74.9316 222.654 74.4902C221.272 72.9825 219.896 72.2168 218.563 72.2168C218.332 72.2168 218.097 72.2364 217.85 72.2793C213.979 72.9473 211.12 78.1152 209.797 86.8225C208.725 94.0333 208.705 101.924 209.743 110.267C210.129 113.545 210.734 116.463 211.542 118.955C212.736 122.631 214.407 125.467 216.512 127.397C218.204 128.978 219.859 129.74 221.577 129.74C221.93 129.74 222.3 129.709 222.675 129.642C225.261 129.197 227.27 126.951 228.651 122.971C229.647 120.154 230.199 116.802 230.3 112.967C226.686 114.76 223.28 116.557 220.142 118.326C219.762 118.541 219.296 118.654 218.83 118.654C218.546 118.654 218.263 118.615 217.995 118.529C217.283 118.311 216.79 117.826 216.699 117.263L213.363 95.6625C213.272 95.0883 213.63 94.5217 214.284 94.1975L240.785 80.9981C241.144 80.8184 241.567 80.7246 241.99 80.7246C242.247 80.7246 242.504 80.7559 242.745 80.8262C243.398 81.0059 243.891 81.4082 244.062 81.9004C246.252 88.1583 247.57 95.6233 247.976 104.084C248.293 111.537 247.939 118.588 246.922 125.049C243.784 144.612 236.03 155.193 223.221 157.408C222.172 157.588 221.111 157.682 220.067 157.682L220.073 157.686Z" fill="black"/>
<path d="M211.629 40.2051C218.489 40.2051 224.973 44.959 231.083 54.4668L224.427 73.6192C222.611 71.6426 220.657 70.6543 218.553 70.6543C218.156 70.6543 217.755 70.6895 217.348 70.7597C212.368 71.6192 209.139 76.9199 207.661 86.6541C206.569 94.0057 206.547 101.924 207.602 110.412C207.999 113.772 208.614 116.74 209.45 119.318C210.724 123.232 212.512 126.252 214.825 128.373C216.92 130.33 219.169 131.307 221.567 131.307C222.092 131.307 222.622 131.26 223.158 131.166C226.601 130.572 229.118 127.967 230.714 123.357C232.004 119.709 232.571 115.272 232.427 110.052C227.474 112.42 222.938 114.772 218.82 117.092L215.485 95.4899L241.985 82.291C244.144 88.4666 245.429 95.7516 245.835 104.142C246.151 111.545 245.804 118.455 244.796 124.873C241.803 143.529 234.445 153.865 222.73 155.892C221.835 156.049 220.951 156.123 220.068 156.123C213.3 156.123 206.927 151.552 200.94 142.412C197.492 137.26 194.665 131.299 192.459 124.517C190.381 118.123 188.871 110.971 187.929 103.064C186.242 89.5407 186.927 76.7676 189.985 64.7442C193.658 50.0957 199.998 41.9902 209.005 40.4317C209.883 40.2793 210.756 40.2051 211.624 40.2051M211.629 37.0801C210.435 37.0801 209.22 37.1856 208.02 37.3926C197.096 39.2793 189.819 48.0449 185.776 64.1856C182.665 76.4277 181.952 89.6074 183.666 103.353C184.625 111.362 186.183 118.732 188.293 125.244C190.552 132.209 193.514 138.443 197.085 143.779C203.902 154.193 211.42 159.256 220.068 159.256C221.278 159.256 222.505 159.151 223.715 158.939C230.815 157.713 236.577 154.052 240.834 148.064C244.732 142.584 247.5 134.904 249.049 125.244C250.076 118.702 250.435 111.572 250.114 104.052C249.701 95.4632 248.363 87.8891 246.135 81.5254C245.787 80.5371 244.807 79.7363 243.495 79.3731C243.003 79.2363 242.494 79.1699 241.98 79.1699C241.129 79.1699 240.288 79.3535 239.565 79.7129L213.064 92.9124C211.752 93.5641 211.045 94.6932 211.222 95.8416L214.558 117.443C214.73 118.564 215.72 119.533 217.145 119.971C217.68 120.135 218.247 120.217 218.81 120.217C219.741 120.217 220.668 119.994 221.434 119.564C223.49 118.404 225.67 117.228 227.945 116.052C227.699 118.482 227.233 120.666 226.558 122.577C225.434 125.818 223.838 127.838 222.162 128.127C221.948 128.166 221.75 128.182 221.557 128.182C220.309 128.182 219.04 127.24 218.189 126.447C218.178 126.439 218.172 126.432 218.162 126.424C216.255 124.677 214.724 122.045 213.6 118.596C212.812 116.177 212.223 113.334 211.849 110.142C210.82 101.885 210.836 94.1032 211.896 86.9899C213.69 75.1817 217.557 73.9317 218.312 73.8027C218.392 73.7871 218.467 73.7832 218.526 73.7832C218.955 73.7832 219.838 74.2715 220.84 75.3613C221.642 76.2363 222.986 76.7481 224.4 76.7481C224.641 76.7481 224.887 76.7324 225.129 76.7012C226.794 76.4902 228.138 75.5879 228.555 74.3887L235.211 55.2363C235.452 54.5371 235.356 53.7949 234.939 53.1426C227.993 42.3379 220.363 37.084 211.602 37.084L211.629 37.0801Z" fill="black"/>
<path d="M101.763 176.741C93.9185 176.741 86.8877 171.791 80.2691 161.603C76.81 156.267 73.913 150.037 71.6586 143.091C69.4471 136.276 67.8299 128.639 66.8606 120.392C65.19 106.401 65.8379 92.9748 68.7884 80.4902C72.6171 64.4121 79.4231 55.7441 89.5866 53.9863C90.6093 53.8105 91.6428 53.7207 92.6548 53.7207C100.446 53.7207 107.424 58.6855 113.989 68.8965C117.608 74.502 120.607 80.9159 122.894 87.9548C125.078 94.6814 126.695 102.213 127.707 110.341C129.346 124.256 128.645 137.642 125.625 150.135C121.764 166.111 114.979 174.725 104.89 176.471C103.852 176.651 102.802 176.741 101.769 176.741H101.763ZM98.5288 93.1973C98.4063 93.1973 98.283 93.2089 98.1546 93.2323C96.778 93.4706 93.3991 95.2756 91.6696 106.896C90.5236 114.135 90.3362 121.135 91.1126 127.716C91.5571 131.166 92.2265 134.287 93.0993 136.971C94.2988 140.662 95.9641 143.568 98.0471 145.615C99.7338 147.232 101.458 148.061 103.166 148.061C103.504 148.061 103.857 148.029 104.215 147.966C108.162 147.283 110.058 142.635 110.947 138.853C112.087 134.068 112.264 128.526 111.471 122.381C110.556 115.123 108.57 108.056 105.565 101.373C102.052 93.7906 99.2946 93.2015 98.5288 93.2015V93.1973Z" fill="#50B861"/>
<path d="M92.6503 55.2871C99.4613 55.2871 105.925 60.0449 112.04 69.5644C115.617 75.0996 118.535 81.3496 120.8 88.3182C122.97 95.0024 124.56 102.392 125.566 110.487C127.2 124.322 126.509 137.452 123.505 149.869C119.842 165.022 113.47 173.385 104.388 174.955C103.51 175.107 102.631 175.182 101.764 175.182C94.894 175.182 88.3771 170.436 82.2031 160.94C78.7974 155.682 75.9701 149.615 73.7371 142.74C71.5362 135.963 69.9566 128.471 68.9927 120.267C67.3273 106.338 67.9646 93.1699 70.8936 80.7637C74.5296 65.5137 80.9179 57.0996 90.0746 55.5176C90.9367 55.3691 91.7989 55.2949 92.6503 55.2949M103.162 149.619C103.67 149.619 104.185 149.572 104.704 149.482C108.805 148.776 111.59 145.318 113.052 139.115C114.23 134.174 114.412 128.545 113.598 122.232C112.661 114.83 110.664 107.717 107.595 100.885C104.741 94.7207 101.716 91.6349 98.5246 91.6349C98.2355 91.6349 97.9463 91.6582 97.6571 91.709C93.6302 92.404 90.9206 97.4124 89.5391 106.725C88.3718 114.088 88.1844 121.127 88.9769 127.846C89.4321 131.397 90.1121 134.557 91.0117 137.327C92.2861 141.24 94.0532 144.315 96.3238 146.541C98.4605 148.592 100.736 149.615 103.162 149.615M92.6503 52.1621C91.4669 52.1621 90.2727 52.2676 89.0893 52.4707C77.9995 54.3887 70.6687 63.4668 66.6741 80.2246C63.6914 92.8457 63.0381 106.408 64.7249 120.537C65.7048 128.857 67.3327 136.572 69.571 143.459C71.8629 150.51 74.8081 156.842 78.3315 162.276C85.3463 173.065 93.0091 178.307 101.764 178.307C102.964 178.307 104.179 178.202 105.379 177.994C116.388 176.092 123.697 167.068 127.725 150.412C130.782 137.783 131.489 124.26 129.834 110.221C128.811 102.002 127.178 94.3965 124.972 87.5999C122.653 80.4551 119.606 73.9394 115.917 68.2324C108.966 57.4199 101.357 52.1621 92.6503 52.1621ZM93.2446 127.572C92.4843 121.096 92.6717 114.205 93.7962 107.088C93.7962 107.08 93.7962 107.072 93.7962 107.065C95.2741 97.1115 97.8821 95.1465 98.5088 94.8149C99.0655 95.0999 101.015 96.4357 103.531 101.873C106.482 108.443 108.436 115.389 109.335 122.522C110.112 128.533 109.941 133.936 108.832 138.584C107.756 143.142 105.845 146.08 103.713 146.447C103.515 146.482 103.333 146.498 103.156 146.498C101.914 146.498 100.618 145.51 99.7455 144.674C97.8388 142.802 96.3021 140.088 95.1724 136.615C94.3263 134.006 93.6731 130.963 93.234 127.577L93.2446 127.572Z" fill="black"/>
<path d="M165.705 169.545C165.379 169.545 165.052 169.49 164.746 169.381C164.136 169.158 163.708 168.74 163.595 168.252L150.888 115.131L156.232 159.263C156.307 159.901 155.847 160.506 155.065 160.795L133.517 168.756C133.212 168.869 132.88 168.924 132.548 168.924C132.163 168.924 131.782 168.85 131.44 168.697C130.808 168.42 130.417 167.924 130.406 167.385C129.694 133.252 126.417 98.4508 120.676 63.9551C120.575 63.3301 120.992 62.7207 121.747 62.4082L146.187 52.2832C146.514 52.1465 146.878 52.08 147.242 52.08C147.552 52.08 147.863 52.127 148.146 52.2285C148.773 52.4434 149.223 52.8652 149.346 53.3652L155.033 76.123L152.912 56.6504C152.848 56.0566 153.255 55.4864 153.956 55.1816L177.341 45.0957C177.679 44.9512 178.053 44.877 178.434 44.877C178.744 44.877 179.055 44.9239 179.339 45.0254C179.981 45.2441 180.431 45.6777 180.543 46.1895C187.606 77.6504 195.285 106.209 203.36 131.072L208.153 145.822C208.367 146.487 207.97 147.174 207.167 147.526L186.434 156.552C186.096 156.701 185.716 156.776 185.336 156.776C185.036 156.776 184.736 156.728 184.458 156.638C183.82 156.427 183.36 156.006 183.231 155.502L174.45 121.58L179.226 163.619C179.295 164.252 178.84 164.853 178.064 165.138L166.675 169.377C166.369 169.49 166.037 169.549 165.7 169.549L165.705 169.545Z" fill="#50B861"/>
<path d="M178.435 46.4395C185.54 78.0879 193.16 106.416 201.284 131.432C202.895 136.397 204.491 141.314 206.076 146.182L185.342 155.209L168.925 91.7949L177.095 163.744L165.706 167.982L144.303 78.5058L154.102 159.401L132.555 167.362C131.837 132.998 128.586 98.4665 122.809 63.7675L147.248 53.6425L160.533 106.842L155.05 56.5254L178.435 46.4395ZM178.435 43.3145C177.68 43.3145 176.925 43.459 176.255 43.748L152.87 53.834C152.464 54.0097 152.11 54.2285 151.81 54.4824L151.462 53.084C151.216 52.0879 150.316 51.2402 149.063 50.8145C148.485 50.6191 147.869 50.5215 147.248 50.5215C146.515 50.5215 145.786 50.6582 145.133 50.9277L120.694 61.0527C119.189 61.6738 118.348 62.8965 118.557 64.1465C124.292 98.5882 127.558 133.33 128.276 167.408C128.297 168.487 129.079 169.478 130.343 170.037C131.023 170.338 131.789 170.487 132.56 170.487C133.224 170.487 133.888 170.373 134.493 170.151L156.04 162.189C157.605 161.612 158.525 160.401 158.37 159.127L157.475 151.752L161.486 168.522C161.722 169.498 162.574 170.338 163.795 170.779C164.4 170.998 165.053 171.107 165.706 171.107C166.36 171.107 167.04 170.994 167.65 170.767L179.04 166.529C180.587 165.955 181.508 164.752 181.364 163.487L179.987 151.362L181.133 155.787C181.395 156.791 182.306 157.639 183.585 158.057C184.148 158.24 184.748 158.33 185.342 158.33C186.103 158.33 186.863 158.182 187.538 157.889L208.271 148.862C209.878 148.162 210.675 146.783 210.242 145.459L205.787 131.737L205.455 130.705C197.39 105.869 189.722 77.3495 182.665 45.9277C182.435 44.9082 181.535 44.037 180.25 43.6035C179.671 43.4082 179.055 43.3105 178.435 43.3105V43.3145Z" fill="black"/>
<path d="M226.633 155.158C218.89 155.158 212.004 150.381 205.573 140.561C202.076 135.338 199.168 129.209 196.94 122.353C194.852 115.916 193.31 108.623 192.362 100.677C190.67 87.0799 191.366 74.045 194.445 61.9356C198.317 46.4746 205.07 38.1191 215.077 36.3887C216.116 36.209 217.16 36.1191 218.194 36.1191C226.034 36.1191 233.032 41.0801 239.592 51.2793C239.8 51.6075 239.849 51.9786 239.725 52.3262L233.07 71.4786C232.86 72.0762 232.191 72.5293 231.356 72.6348C231.233 72.6504 231.115 72.6582 230.992 72.6582C230.285 72.6582 229.615 72.4043 229.214 71.9629C227.833 70.4551 226.456 69.6895 225.123 69.6895C224.893 69.6895 224.657 69.709 224.41 69.752C220.54 70.42 217.68 75.5879 216.357 84.2949C215.286 91.5057 215.265 99.3966 216.304 107.74C216.69 111.017 217.295 113.936 218.103 116.427C219.297 120.103 220.968 122.939 223.072 124.869C224.765 126.452 226.419 127.213 228.138 127.213C228.491 127.213 228.86 127.182 229.235 127.115C231.822 126.67 233.83 124.424 235.211 120.443C236.207 117.627 236.759 114.276 236.86 110.439C233.246 112.232 229.84 114.029 226.703 115.799C226.322 116.014 225.856 116.127 225.39 116.127C225.107 116.127 224.823 116.088 224.555 116.002C223.843 115.783 223.35 115.299 223.26 114.737L219.924 93.1349C219.832 92.5607 220.191 91.9941 220.845 91.6699L247.345 78.4707C247.705 78.2911 248.127 78.1973 248.55 78.1973C248.807 78.1973 249.065 78.2286 249.305 78.2988C249.959 78.4786 250.451 78.8809 250.623 79.3731C252.813 85.6307 254.13 93.0957 254.537 101.557C254.853 109.01 254.5 116.061 253.482 122.522C250.345 142.084 242.59 152.666 229.782 154.881C228.732 155.061 227.672 155.154 226.628 155.154L226.633 155.158Z" fill="#50B861"/>
<path d="M218.193 37.6738C225.053 37.6738 231.537 42.4277 237.647 51.9356L230.992 71.0879C229.176 69.1113 227.222 68.1231 225.117 68.1231C224.721 68.1231 224.319 68.1582 223.912 68.2286C218.932 69.0879 215.703 74.3887 214.226 84.1232C213.133 91.4749 213.112 99.3924 214.167 107.881C214.562 111.24 215.178 114.209 216.014 116.787C217.288 120.702 219.077 123.721 221.39 125.842C223.484 127.799 225.733 128.776 228.132 128.776C228.657 128.776 229.187 128.728 229.722 128.635C233.166 128.041 235.682 125.436 237.278 120.827C238.568 117.177 239.136 112.74 238.992 107.522C234.038 109.889 229.502 112.24 225.385 114.561L222.049 92.9591L248.55 79.7597C250.708 85.9357 251.993 93.2207 252.4 101.612C252.716 109.014 252.367 115.924 251.361 122.342C248.367 140.998 241.01 151.334 229.294 153.362C228.4 153.517 227.516 153.592 226.632 153.592C219.864 153.592 213.492 149.022 207.505 139.881C204.057 134.728 201.229 128.767 199.023 121.987C196.946 115.592 195.436 108.439 194.493 100.533C192.807 87.0099 193.492 74.2363 196.549 62.2129C200.222 47.5645 206.562 39.459 215.57 37.9004C216.447 37.7481 217.321 37.6738 218.188 37.6738M218.193 34.5488C216.999 34.5488 215.784 34.6543 214.584 34.8613C203.661 36.7481 196.383 45.5137 192.34 61.6543C189.229 73.8965 188.517 87.0766 190.231 100.822C191.189 108.83 192.747 116.202 194.857 122.713C197.117 129.677 200.078 135.912 203.65 141.248C210.467 151.662 217.985 156.725 226.632 156.725C227.842 156.725 229.069 156.619 230.279 156.408C237.38 155.182 243.142 151.522 247.398 145.533C251.297 140.052 254.065 132.373 255.613 122.713C256.641 116.17 257 109.041 256.678 101.522C256.266 92.9316 254.927 85.3574 252.7 78.9942C252.352 78.0059 251.372 77.2051 250.06 76.8418C249.567 76.7051 249.058 76.6387 248.544 76.6387C247.693 76.6387 246.852 76.8223 246.129 77.1817L219.628 90.3807C218.317 91.0332 217.61 92.1624 217.787 93.3107L221.122 114.912C221.294 116.033 222.284 117.002 223.709 117.439C224.244 117.603 224.812 117.686 225.374 117.686C226.306 117.686 227.232 117.463 227.998 117.033C230.054 115.873 232.234 114.697 234.51 113.522C234.263 115.952 233.797 118.135 233.122 120.045C231.998 123.287 230.402 125.307 228.727 125.596C228.512 125.635 228.314 125.651 228.122 125.651C226.873 125.651 225.604 124.709 224.753 123.916C224.742 123.908 224.737 123.901 224.727 123.892C222.82 122.147 221.288 119.514 220.164 116.064C219.377 113.647 218.787 110.802 218.413 107.612C217.385 99.3532 217.401 91.5724 218.461 84.4591C220.255 72.6504 224.121 71.4004 224.877 71.2715C224.957 71.2559 225.032 71.252 225.091 71.252C225.519 71.252 226.402 71.7402 227.403 72.8301C228.207 73.7051 229.551 74.2168 230.965 74.2168C231.206 74.2168 231.452 74.2012 231.693 74.1699C233.358 73.959 234.702 73.0567 235.12 71.8574L241.776 52.7051C242.017 52.0059 241.921 51.2637 241.503 50.6113C234.557 39.8067 226.927 34.5527 218.167 34.5527L218.193 34.5488Z" fill="black"/>
<path d="M44.1888 49.459L47.3642 43.5566L52.8582 49.459H61.5277L54.2987 54.5176L56.0337 60.4199L47.9425 56.6231L39.68 59.3886L42.004 53.8027L36.0977 49.8808L44.1888 49.459Z" fill="black" stroke="black" stroke-width="0.722657" stroke-linejoin="round"/>
<path d="M44.6654 48.6582L47.8461 42.7559L53.3348 48.6582H62.0042L54.7806 53.7208L56.5156 59.6231L48.4245 55.8262L40.1566 58.5919L42.4806 53.0059L36.5742 49.0801L44.6654 48.6582Z" fill="#FF8000" stroke="black" stroke-width="0.722657" stroke-linejoin="round"/>
<path d="M250.954 31.92L242.671 30.5567L250.36 26.8379L249.766 21.752L257.172 25.5605L265.113 24.045L260.486 29.1114L266.141 32.8575L256.641 33.4473L252.079 36.6309L250.954 31.92Z" fill="black" stroke="black" stroke-width="0.722657" stroke-linejoin="round"/>
<path d="M251.907 31.1269L243.629 29.7597L251.318 26.041L250.724 20.959L258.13 24.7637L266.071 23.248L261.439 28.3144L267.099 32.0605L257.594 32.6503L253.037 35.834L251.907 31.1269Z" fill="#FF8000" stroke="black" stroke-width="0.722657" stroke-linejoin="round"/>
<path d="M136.978 34.0723L137.09 28.7949L143.559 32.3378L150.134 30.5996L146.627 36.0253L150.241 40.3183L142.627 38.9551L138.846 43.3262L136.131 37.8574L131.007 36.0253L136.978 34.0723Z" fill="#FF8000" stroke="black" stroke-width="0.722657" stroke-linejoin="round"/>
<path d="M151.987 37.4981L156.207 35.916L155.393 39.7363L158.793 41.9746L153.411 42.1699L151.125 45.0176L149.856 41.3848L145.224 41.1348L148.72 38.3067L148.598 35.5762L151.987 37.4981Z" fill="black" stroke="black" stroke-width="0.722657" stroke-linejoin="round"/>
<path d="M152.645 37.3106L156.865 35.7285L156.051 39.5488L159.457 41.791L154.07 41.9824L151.784 44.8301L150.514 41.1972L145.883 40.9512L149.384 38.1192L149.256 35.3926L152.645 37.3106Z" fill="black" stroke="black" stroke-width="0.722657" stroke-linejoin="round"/>
<path d="M137.572 33.209L137.678 27.9316L144.147 31.4706L150.728 29.7363L147.221 35.1621L150.835 39.4551L143.215 38.0918L139.435 42.4629L136.72 36.9941L131.596 35.1621L137.572 33.209Z" fill="#FF8000" stroke="black" stroke-width="0.722657" stroke-linejoin="round"/>
<path d="M32.4506 145.314L32.5577 140.037L39.0263 143.576L45.602 141.841L42.0946 147.264L45.7144 151.556L38.0945 150.197L34.314 154.568L31.5992 149.1L26.4746 147.264L32.4506 145.314Z" fill="#FF8000" stroke="black" stroke-width="0.722657" stroke-linejoin="round"/>
<path d="M33.1362 145.014L33.2432 139.736L39.7118 143.275L46.2876 141.54L42.7802 146.966L46.4 151.26L38.7801 149.896L34.9996 154.267L32.2847 148.799L27.1602 146.966L33.1362 145.014Z" fill="#FF8000" stroke="black" stroke-width="0.722657" stroke-linejoin="round"/>
<path d="M234.204 163.612L240.641 161.197L239.398 167.029L244.592 170.447L236.378 170.74L232.887 175.088L230.954 169.541L223.886 169.166L229.224 164.846L229.032 160.682L234.204 163.612Z" fill="#FF8000" stroke="black" stroke-width="0.722657" stroke-linejoin="round"/>
<path d="M235.211 163.326L241.648 160.916L240.405 166.744L245.599 170.162L237.385 170.455L233.894 174.802L231.961 169.256L224.893 168.881L230.231 164.561L230.038 160.396L235.211 163.326Z" fill="#FF8000" stroke="black" stroke-width="0.722657" stroke-linejoin="round"/>
<path d="M209.235 163.806L213.455 162.225L212.641 166.045L216.047 168.287L210.665 168.478L208.373 171.33L207.104 167.693L202.472 167.447L205.974 164.615L205.846 161.889L209.235 163.806Z" fill="black" stroke="black" stroke-width="0.722657" stroke-linejoin="round"/>
<path d="M209.893 163.619L214.113 162.037L213.299 165.857L216.705 168.1L211.323 168.29L209.032 171.142L207.762 167.505L203.13 167.26L206.632 164.427L206.504 161.701L209.893 163.619Z" fill="black" stroke="black" stroke-width="0.722657" stroke-linejoin="round"/>
<path d="M126.53 184.596L126.636 179.318L133.105 182.862L139.686 181.123L136.179 186.549L139.793 190.842L132.174 189.478L127.649 193.205L126.69 188.17L120.554 186.549L126.53 184.596Z" fill="#FF8000" stroke="black" stroke-width="0.722657" stroke-linejoin="round"/>
<path d="M127.697 183.975L127.81 178.697L134.278 182.236L140.854 180.501L137.347 185.924L140.961 190.216L133.347 188.857L128.817 192.584L127.863 187.545L121.727 185.924L127.697 183.975Z" fill="#FF8000" stroke="black" stroke-width="0.722657" stroke-linejoin="round"/>
</svg>
