<svg width="71" height="71" viewBox="0 0 71 71" fill="none" xmlns="http://www.w3.org/2000/svg">
<path fill-rule="evenodd" clip-rule="evenodd" d="M70.3686 35.6985C70.3686 54.9556 54.7573 70.5669 35.5002 70.5669C16.2429 70.5669 0.631836 54.9556 0.631836 35.6985C0.631836 16.4412 16.2429 0.830078 35.5002 0.830078C54.7573 0.830078 70.3686 16.4412 70.3686 35.6985ZM36.7495 26.5714C33.3582 27.9821 26.5801 30.9016 16.4152 35.3303C14.7646 35.9868 13.8999 36.6291 13.8212 37.2567C13.6882 38.3181 15.0171 38.7359 16.8266 39.3049C17.0728 39.3823 17.3278 39.4625 17.5892 39.5472C19.3696 40.1261 21.7644 40.8032 23.0094 40.83C24.1387 40.8545 25.3992 40.389 26.7907 39.4332C36.2882 33.0223 41.1907 29.782 41.4983 29.7119C41.7155 29.6627 42.0164 29.6007 42.2204 29.782C42.4244 29.9633 42.4042 30.3064 42.3825 30.3985C42.2511 30.9598 37.0348 35.8093 34.3353 38.3188C33.4939 39.1013 32.8969 39.656 32.7749 39.783C32.5015 40.0668 32.2229 40.3353 31.9551 40.5933C30.3013 42.1878 29.0607 43.3835 32.0238 45.3361C33.4479 46.2744 34.587 47.0502 35.7237 47.8243C36.965 48.6699 38.2032 49.513 39.8054 50.5632C40.2134 50.8307 40.6032 51.1086 40.9829 51.3791C42.4275 52.4092 43.7253 53.3346 45.3289 53.1867C46.2606 53.1013 47.223 52.225 47.7118 49.612C48.867 43.4368 51.1377 30.0568 51.6624 24.5434C51.7084 24.0604 51.6506 23.4421 51.6042 23.1708C51.5575 22.8994 51.4605 22.5127 51.1077 22.2265C50.6899 21.8875 50.0452 21.816 49.7565 21.8208C48.4451 21.8442 46.4329 22.5438 36.7495 26.5714Z" fill="#F5882D"/>
</svg>
